<svg xmlns="http://www.w3.org/2000/svg" xmlns:xlink="http://www.w3.org/1999/xlink" width="1080" zoomAndPan="magnify" viewBox="0 0 810 809.999993" height="1080" preserveAspectRatio="xMidYMid meet" version="1.0"><path fill="#ffffff" d="M 467.652344 572.59375 C 467.652344 572.59375 543.605469 337.617188 353.3125 287.914062 C 353.3125 287.914062 326.128906 270.0625 324.496094 263.761719 C 322.863281 257.460938 304.3125 236.578125 291.828125 231.09375 C 291.828125 231.09375 280.976562 197.609375 273.976562 192.941406 C 273.976562 192.941406 288.792969 112.089844 270.828125 103.453125 C 252.976562 95.054688 227.308594 144.757812 227.308594 144.757812 C 227.308594 144.757812 182.972656 149.421875 177.488281 147.089844 C 172.003906 144.757812 127.667969 100.421875 119.152344 107.421875 C 110.636719 114.421875 111.335938 129.238281 123.003906 191.425781 C 123.003906 191.425781 81 238.910156 150.1875 307.28125 C 150.1875 307.28125 154.035156 315.097656 158.003906 329.097656 C 161.855469 343.101562 151.820312 352.085938 166.519531 384.167969 C 181.339844 416.253906 210.855469 464.441406 206.191406 473.773438 C 206.191406 473.773438 209.339844 581.113281 198.371094 585.78125 C 187.40625 590.445312 166.871094 610.628906 191.371094 622.296875 C 191.371094 622.296875 191.488281 636.296875 199.890625 640.148438 C 218.207031 648.664062 237.226562 647.148438 245.742188 640.148438 C 254.257812 633.148438 259.742188 631.632812 267.558594 613.664062 L 286.226562 616.8125 C 284.945312 619.730469 281.910156 627.898438 285.292969 635.949219 C 285.292969 635.949219 288.09375 642.480469 296.378906 647.148438 C 309.5625 654.617188 351.679688 650.066406 405.234375 635.480469 C 405.234375 635.480469 430.085938 652.632812 470.570312 630.816406 C 511.054688 608.996094 609.058594 608.296875 634.726562 635.480469 C 660.394531 662.667969 558.65625 678.417969 558.65625 678.417969 C 558.65625 678.417969 523.65625 705.601562 569.507812 710.269531 C 615.359375 714.9375 729 668.265625 683.03125 621.597656 C 637.0625 574.929688 545.355469 556.261719 467.652344 572.59375 Z M 467.652344 572.59375 " fill-opacity="1" fill-rule="nonzero"/></svg>