<svg xmlns="http://www.w3.org/2000/svg" xmlns:xlink="http://www.w3.org/1999/xlink" width="1080" zoomAndPan="magnify" viewBox="0 0 810 809.999993" height="1080" preserveAspectRatio="xMidYMid meet" version="1.0"><path fill="#ffffff" d="M 90.425781 404.34375 C 90.09375 372.09375 92.871094 350.214844 101.636719 348.296875 L 147.066406 342.394531 C 179.203125 327.554688 212.699219 309.101562 242.050781 301.6875 C 264.59375 297.199219 288.449219 294.453125 314.027344 294.015625 C 365.503906 294.839844 422.761719 291.328125 459.160156 303.457031 C 493.828125 319.46875 527.980469 336.511719 560.636719 356.554688 C 604.644531 359.558594 694.480469 371.800781 707.539062 386.054688 C 714.046875 394.796875 719.230469 404.199219 721.699219 414.960938 C 727.402344 417.320312 727 425.785156 724.648438 436.203125 L 724.058594 457.441406 L 702.226562 466.289062 L 659.160156 471.601562 L 647.949219 474.550781 C 631.703125 512.671875 571.367188 507.945312 554.738281 472.78125 L 541.167969 475.140625 L 299.28125 472.78125 L 296.328125 476.910156 L 277.449219 476.320312 C 264.777344 515.234375 192.4375 518.796875 181.285156 471.007812 L 171.84375 471.007812 L 143.527344 466.878906 L 100.457031 460.980469 C 88.71875 454.015625 83.824219 448.757812 82.757812 444.460938 L 85.707031 440.332031 L 83.347656 416.734375 C 84.9375 408.742188 86.394531 406.179688 90.429688 404.34375 Z M 351.816406 303.234375 C 325.855469 303.277344 300.472656 304.230469 277.628906 309.265625 L 282.953125 354.425781 L 363.128906 357.210938 C 366.421875 356.515625 369.847656 355.976562 369.199219 350.351562 L 360.84375 303.234375 Z M 273.804688 310.136719 C 258.433594 313.886719 244.28125 319.605469 232.011719 328.308594 C 227.148438 331.570312 225.367188 335.433594 225.566406 339.703125 C 227.820312 349.460938 233.578125 353.382812 241.910156 353.011719 L 279.128906 354.300781 Z M 378.332031 303.617188 L 395.433594 352.265625 C 397.589844 355.785156 400.726562 358.421875 406.457031 358.726562 L 489.6875 362.148438 C 477.824219 354.066406 487.585938 339.132812 499.570312 342.382812 C 477.078125 323.652344 452.660156 311.765625 426.21875 307.039062 C 410.710938 304.539062 394.546875 304 378.332031 303.617188 Z M 102.722656 351.878906 C 95.886719 354.324219 94.226562 371.710938 93.949219 393.082031 L 116.269531 392.890625 C 117.125 385.421875 117.285156 377.949219 116.363281 370.476562 C 114.167969 357.40625 108.054688 355.789062 102.722656 351.878906 Z M 250.898438 371.894531 L 272.027344 371.894531 C 273.707031 371.894531 275.058594 373.246094 275.058594 374.925781 C 275.058594 376.605469 273.707031 377.957031 272.027344 377.957031 L 250.898438 377.957031 C 249.222656 377.957031 247.867188 376.605469 247.867188 374.925781 C 247.867188 373.246094 249.222656 371.894531 250.898438 371.894531 Z M 396.609375 375.378906 L 417.738281 375.378906 C 419.417969 375.378906 420.769531 376.730469 420.769531 378.410156 C 420.769531 380.089844 419.417969 381.441406 417.738281 381.441406 L 396.609375 381.441406 C 394.929688 381.441406 393.578125 380.089844 393.578125 378.410156 C 393.578125 376.730469 394.929688 375.378906 396.609375 375.378906 Z M 265.277344 456.730469 C 265.277344 476.050781 249.597656 491.730469 230.277344 491.730469 C 210.957031 491.730469 195.277344 476.050781 195.277344 456.730469 C 195.277344 437.410156 210.957031 421.726562 230.277344 421.726562 C 249.597656 421.726562 265.277344 437.410156 265.277344 456.730469 Z M 638.902344 452.292969 C 638.902344 471.613281 623.21875 487.296875 603.898438 487.296875 C 584.578125 487.296875 568.898438 471.613281 568.898438 452.292969 C 568.898438 432.972656 584.578125 417.292969 603.898438 417.292969 C 623.21875 417.292969 638.902344 432.972656 638.902344 452.292969 Z M 668.152344 410.007812 L 713.375 410.300781 C 709.886719 402.773438 705.386719 396.113281 698.398438 390.652344 L 680.890625 392.015625 C 677.679688 392.5 676.324219 393.914062 675.152344 395.417969 L 668.148438 410.007812 Z M 668.152344 410.007812 " fill-opacity="1" fill-rule="evenodd"/></svg>