<svg xmlns="http://www.w3.org/2000/svg" xmlns:xlink="http://www.w3.org/1999/xlink" width="1080" zoomAndPan="magnify" viewBox="0 0 810 809.999993" height="1080" preserveAspectRatio="xMidYMid meet" version="1.0"><defs><clipPath id="97912c3da7"><path d="M 81 659 L 313 659 L 313 682.574219 L 81 682.574219 Z M 81 659 " clip-rule="nonzero"/></clipPath><clipPath id="1350fe68dc"><path d="M 333 659 L 519 659 L 519 682.574219 L 333 682.574219 Z M 333 659 " clip-rule="nonzero"/></clipPath><clipPath id="180dea8924"><path d="M 127 127.574219 L 683 127.574219 L 683 452 L 127 452 Z M 127 127.574219 " clip-rule="nonzero"/></clipPath><clipPath id="b926c88aa2"><path d="M 613 659 L 729 659 L 729 682.574219 L 613 682.574219 Z M 613 659 " clip-rule="nonzero"/></clipPath></defs><path fill="#8a8a8a" d="M 265.699219 492.6875 L 216.664062 541.722656 C 214.40625 543.980469 211.472656 545.109375 208.492188 545.109375 C 205.511719 545.109375 202.578125 543.980469 200.320312 541.722656 C 195.804688 537.207031 195.804688 529.894531 200.320312 525.378906 L 249.355469 476.339844 C 253.871094 471.824219 261.1875 471.824219 265.699219 476.339844 C 270.214844 480.855469 270.214844 488.171875 265.699219 492.6875 Z M 147.308594 541.722656 C 145.050781 543.980469 142.117188 545.109375 139.136719 545.109375 C 136.15625 545.109375 133.21875 543.980469 130.960938 541.722656 C 126.449219 537.207031 126.449219 529.894531 130.960938 525.378906 L 180 476.339844 C 184.515625 471.824219 191.828125 471.824219 196.34375 476.339844 C 200.859375 480.855469 200.859375 488.171875 196.34375 492.6875 Z M 312.523438 370.320312 C 312.523438 363.953125 307.332031 358.761719 300.964844 358.761719 L 92.898438 358.761719 C 86.53125 358.761719 81.339844 363.953125 81.339844 370.320312 L 81.339844 636.183594 L 312.523438 636.183594 L 312.523438 370.320312 " fill-opacity="1" fill-rule="nonzero"/><g clip-path="url(#97912c3da7)"><path fill="#8a8a8a" d="M 312.523438 670.863281 L 312.523438 659.304688 L 81.339844 659.304688 L 81.339844 670.863281 C 81.339844 677.230469 86.53125 682.421875 92.898438 682.421875 L 300.964844 682.421875 C 307.332031 682.421875 312.523438 677.230469 312.523438 670.863281 " fill-opacity="1" fill-rule="nonzero"/></g><path fill="#8a8a8a" d="M 381.882812 566.828125 L 381.882812 636.183594 L 428.117188 636.183594 L 428.117188 566.828125 L 381.882812 566.828125 " fill-opacity="1" fill-rule="nonzero"/><g clip-path="url(#1350fe68dc)"><path fill="#8a8a8a" d="M 335.644531 670.863281 C 335.644531 674.925781 334.785156 678.808594 333.523438 682.421875 L 518.605469 682.421875 C 513.820312 668.96875 500.996094 659.304688 485.914062 659.304688 L 335.644531 659.304688 L 335.644531 670.863281 " fill-opacity="1" fill-rule="nonzero"/></g><path fill="#8a8a8a" d="M 405.226562 520.59375 C 398.859375 520.59375 393.621094 515.398438 393.621094 509.03125 C 393.621094 502.667969 398.722656 497.472656 405.136719 497.472656 L 405.226562 497.472656 C 411.636719 497.472656 416.785156 502.667969 416.785156 509.03125 C 416.785156 515.398438 411.636719 520.59375 405.226562 520.59375 Z M 589.949219 474.355469 L 335.644531 474.355469 L 335.644531 543.710938 L 589.949219 543.710938 L 589.949219 474.355469 " fill-opacity="1" fill-rule="nonzero"/><g clip-path="url(#180dea8924)"><path fill="#8a8a8a" d="M 517.207031 239.78125 L 402.789062 354.199219 C 400.53125 356.457031 397.550781 357.585938 394.613281 357.585938 C 391.632812 357.585938 388.699219 356.457031 386.441406 354.199219 C 381.925781 349.6875 381.925781 342.371094 386.441406 337.855469 L 500.859375 223.4375 C 505.375 218.921875 512.691406 218.921875 517.207031 223.4375 C 521.722656 227.953125 521.722656 235.265625 517.207031 239.78125 Z M 428.117188 173.8125 L 381.882812 173.8125 C 375.515625 173.8125 370.320312 168.621094 370.320312 162.253906 C 370.320312 155.886719 375.515625 150.695312 381.882812 150.695312 L 428.117188 150.695312 C 434.484375 150.695312 439.679688 155.886719 439.679688 162.253906 C 439.679688 168.621094 434.484375 173.8125 428.117188 173.8125 Z M 589.949219 439.675781 C 589.949219 420.53125 605.480469 405 624.628906 405 L 682.421875 405 L 682.421875 162.253906 C 682.421875 143.109375 666.890625 127.574219 647.746094 127.574219 L 162.253906 127.574219 C 143.109375 127.574219 127.574219 143.109375 127.574219 162.253906 L 127.574219 335.644531 L 300.964844 335.644531 C 306.070312 335.644531 310.898438 336.816406 315.28125 338.847656 C 315.550781 338.53125 315.640625 338.171875 315.910156 337.855469 L 430.332031 223.4375 C 434.847656 218.921875 442.160156 218.921875 446.675781 223.4375 C 451.191406 227.953125 451.191406 235.265625 446.675781 239.78125 L 332.257812 354.199219 C 332.078125 354.382812 331.851562 354.425781 331.671875 354.605469 C 334.109375 359.304688 335.644531 364.632812 335.644531 370.320312 L 335.644531 451.234375 L 589.949219 451.234375 L 589.949219 439.675781 " fill-opacity="1" fill-rule="nonzero"/></g><g clip-path="url(#b926c88aa2)"><path fill="#8a8a8a" d="M 613.066406 670.863281 C 613.066406 677.230469 618.261719 682.421875 624.628906 682.421875 L 717.101562 682.421875 C 723.46875 682.421875 728.660156 677.230469 728.660156 670.863281 L 728.660156 659.304688 L 613.066406 659.304688 L 613.066406 670.863281 " fill-opacity="1" fill-rule="nonzero"/></g><path fill="#8a8a8a" d="M 695.382812 523.980469 L 662.691406 556.667969 C 660.433594 558.925781 657.5 560.054688 654.519531 560.054688 C 651.582031 560.054688 648.605469 558.925781 646.347656 556.667969 C 641.832031 552.15625 641.832031 544.839844 646.347656 540.324219 L 679.039062 507.632812 C 683.550781 503.117188 690.867188 503.117188 695.382812 507.632812 C 699.898438 512.148438 699.898438 519.464844 695.382812 523.980469 Z M 717.101562 428.117188 L 624.628906 428.117188 C 618.261719 428.117188 613.066406 433.308594 613.066406 439.675781 L 613.066406 636.183594 L 728.660156 636.183594 L 728.660156 439.675781 C 728.660156 433.308594 723.46875 428.117188 717.101562 428.117188 " fill-opacity="1" fill-rule="nonzero"/></svg>