<svg xmlns="http://www.w3.org/2000/svg" xmlns:xlink="http://www.w3.org/1999/xlink" width="1080" zoomAndPan="magnify" viewBox="0 0 810 809.999993" height="1080" preserveAspectRatio="xMidYMid meet" version="1.0"><defs><clipPath id="a0a99e96a1"><path d="M 113.8125 248.132812 L 695.8125 248.132812 L 695.8125 561.625 L 113.8125 561.625 Z M 113.8125 248.132812 " clip-rule="nonzero"/></clipPath></defs><g clip-path="url(#a0a99e96a1)"><path fill="#ffffff" d="M 248.96875 414.269531 L 404.996094 468.707031 L 561.019531 414.269531 L 561.019531 508.539062 C 561.019531 537.988281 491.164062 561.859375 404.996094 561.859375 C 318.824219 561.859375 248.96875 537.988281 248.96875 508.539062 Z M 404.996094 248.132812 L 696.175781 349.726562 L 653.109375 364.753906 L 653.109375 448.214844 L 654.324219 448.589844 C 660.792969 451.324219 665.324219 457.722656 665.324219 465.175781 C 665.324219 470.148438 663.308594 474.648438 660.050781 477.902344 L 659.757812 478.136719 L 669.824219 537.125 L 624.8125 537.125 L 634.878906 478.136719 L 634.585938 477.902344 C 631.328125 474.648438 629.320312 470.148438 629.320312 465.175781 C 629.320312 457.722656 633.855469 451.324219 640.308594 448.589844 L 641.527344 448.214844 L 641.527344 368.796875 L 404.996094 451.320312 L 113.8125 349.726562 Z M 404.996094 248.132812 " fill-opacity="1" fill-rule="evenodd"/></g></svg>