<svg xmlns="http://www.w3.org/2000/svg" xmlns:xlink="http://www.w3.org/1999/xlink" width="1080" zoomAndPan="magnify" viewBox="0 0 810 809.999993" height="1080" preserveAspectRatio="xMidYMid meet" version="1.0"><defs><clipPath id="c9d53cd407"><path d="M 81 120.457031 L 726 120.457031 L 726 689.707031 L 81 689.707031 Z M 81 120.457031 " clip-rule="nonzero"/></clipPath></defs><g clip-path="url(#c9d53cd407)"><path fill="#8a8a8a" d="M 724.363281 259.265625 L 678.371094 133.402344 C 675.574219 125.726562 668.265625 120.613281 660.082031 120.613281 L 589.558594 120.613281 C 581.382812 120.613281 574.078125 125.726562 571.269531 133.402344 L 525.28125 259.265625 C 520.640625 271.976562 530.046875 285.425781 543.570312 285.425781 L 613.949219 285.425781 C 614.722656 285.425781 615.351562 286.054688 615.351562 286.828125 L 615.351562 635.6875 L 594.679688 635.6875 C 583.804688 635.6875 574.976562 644.503906 574.976562 655.378906 L 574.976562 689.3125 L 674.664062 689.3125 L 674.664062 655.378906 C 674.664062 644.503906 665.84375 635.6875 654.96875 635.6875 L 634.292969 635.6875 L 634.292969 286.828125 C 634.292969 286.054688 634.917969 285.425781 635.695312 285.425781 L 706.070312 285.425781 C 719.59375 285.425781 729 271.976562 724.363281 259.265625 Z M 499.132812 421.390625 C 479.304688 421.390625 463.234375 437.460938 463.234375 457.289062 L 463.234375 520.070312 C 463.234375 534.816406 451.28125 546.773438 436.542969 546.773438 L 179.515625 546.773438 C 164.773438 546.773438 152.816406 534.816406 152.816406 520.070312 L 152.816406 457.289062 C 152.816406 437.460938 136.746094 421.390625 116.925781 421.390625 C 97.101562 421.390625 81.03125 437.460938 81.03125 457.289062 L 81.03125 653.421875 C 81.03125 673.242188 97.101562 689.3125 116.925781 689.3125 C 136.746094 689.3125 152.816406 673.242188 152.816406 653.421875 L 463.234375 653.421875 C 463.234375 673.242188 479.304688 689.3125 499.132812 689.3125 C 518.957031 689.3125 535.027344 673.242188 535.027344 653.421875 L 535.027344 457.289062 C 535.027344 437.460938 518.957031 421.390625 499.132812 421.390625 Z M 404.558594 529.539062 L 211.496094 529.539062 C 187.894531 529.539062 168.761719 510.402344 168.761719 486.796875 L 168.761719 355.988281 C 168.761719 332.382812 187.894531 313.25 211.496094 313.25 L 404.558594 313.25 C 428.164062 313.25 447.296875 332.382812 447.296875 355.988281 L 447.296875 486.796875 C 447.296875 510.402344 428.164062 529.539062 404.558594 529.539062 " fill-opacity="1" fill-rule="evenodd"/></g></svg>