<svg xmlns="http://www.w3.org/2000/svg" xmlns:xlink="http://www.w3.org/1999/xlink" width="1080" zoomAndPan="magnify" viewBox="0 0 810 809.999993" height="1080" preserveAspectRatio="xMidYMid meet" version="1.0"><defs><clipPath id="0ea8f79db1"><path d="M 159 254 L 653 254 L 653 699.316406 L 159 699.316406 Z M 159 254 " clip-rule="nonzero"/></clipPath></defs><path fill="#8a8a8a" d="M 701.804688 317.386719 L 602.066406 244.023438 L 602.066406 156.507812 C 602.066406 142.789062 590.929688 131.691406 577.230469 131.691406 L 536.863281 131.691406 C 523.144531 131.691406 512.027344 142.808594 512.027344 156.507812 L 512.027344 177.769531 L 435.980469 121.835938 C 419.480469 109.671875 392.464844 109.671875 375.964844 121.835938 L 110.140625 317.386719 C 93.640625 329.535156 90.082031 352.992188 102.230469 369.511719 L 109.574219 379.480469 C 121.703125 396 145.160156 399.578125 161.640625 387.429688 L 375.964844 229.699219 C 392.464844 217.550781 419.480469 217.550781 435.980469 229.699219 L 650.285156 387.429688 C 666.785156 399.578125 690.222656 395.980469 702.347656 379.480469 L 709.714844 369.511719 C 721.839844 352.992188 718.285156 329.535156 701.804688 317.386719 Z M 701.804688 317.386719 " fill-opacity="1" fill-rule="nonzero"/><g clip-path="url(#0ea8f79db1)"><path fill="#8a8a8a" d="M 622.277344 401.152344 L 435.921875 263.417969 C 419.441406 251.230469 392.503906 251.230469 376.023438 263.417969 L 189.664062 401.152344 C 173.183594 413.335938 159.695312 431.15625 159.695312 440.816406 L 159.695312 640.507812 C 159.695312 672.921875 187.488281 699.21875 221.789062 699.21875 L 335.597656 699.21875 L 335.597656 522.578125 C 335.597656 508.933594 346.773438 497.777344 360.417969 497.777344 L 451.488281 497.777344 C 465.128906 497.777344 476.304688 508.933594 476.304688 522.578125 L 476.304688 699.21875 L 590.132812 699.21875 C 624.417969 699.21875 652.1875 672.921875 652.1875 640.507812 L 652.1875 440.816406 C 652.207031 431.15625 638.757812 413.335938 622.277344 401.152344 Z M 622.277344 401.152344 " fill-opacity="1" fill-rule="nonzero"/></g></svg>