<svg xmlns="http://www.w3.org/2000/svg" xmlns:xlink="http://www.w3.org/1999/xlink" width="1080" zoomAndPan="magnify" viewBox="0 0 810 809.999993" height="1080" preserveAspectRatio="xMidYMid meet" version="1.0"><defs><clipPath id="454145b2ea"><path d="M 106 382 L 704 382 L 704 676.171875 L 106 676.171875 Z M 106 382 " clip-rule="nonzero"/></clipPath><clipPath id="7a9b9a3603"><path d="M 106 133.921875 L 704.378906 133.921875 L 704.378906 380 L 106 380 Z M 106 133.921875 " clip-rule="nonzero"/></clipPath></defs><g clip-path="url(#454145b2ea)"><path fill="#8a8a8a" d="M 703.945312 616.949219 L 703.945312 382.199219 C 700.765625 385.3125 697.316406 388.289062 693.796875 390.996094 C 690.550781 393.5 687.167969 395.800781 683.648438 397.964844 C 672.082031 405 659.226562 409.804688 645.765625 411.898438 C 627.632812 414.671875 608.894531 413.589844 590.5625 413.589844 L 460.941406 413.589844 C 460.46875 413.589844 459.996094 413.589844 459.519531 413.523438 L 459.519531 421.914062 C 459.519531 422.925781 459.589844 423.875 459.519531 424.890625 C 459.25 430.367188 455.191406 434.429688 449.710938 434.699219 C 440.039062 435.171875 430.226562 434.699219 420.484375 434.699219 L 373.265625 434.699219 C 369.140625 434.699219 365.011719 434.765625 360.886719 434.699219 C 354.730469 434.5625 350.46875 430.4375 350.398438 424.210938 C 350.332031 420.695312 350.332031 417.109375 350.332031 413.589844 C 349.925781 413.660156 349.453125 413.660156 349.046875 413.660156 C 348.777344 413.660156 348.4375 413.660156 348.167969 413.660156 C 329.765625 413.929688 311.296875 413.660156 292.894531 413.660156 L 210.699219 413.660156 C 190.40625 413.660156 169.636719 414.945312 150.015625 408.652344 C 141.832031 406.015625 133.847656 402.429688 126.339844 398.03125 C 122.820312 395.933594 119.4375 393.703125 116.191406 391.265625 C 112.605469 388.558594 109.222656 385.652344 106.042969 382.539062 L 106.042969 638.394531 C 106.042969 640.289062 105.976562 642.183594 106.113281 644.078125 C 107.464844 661.9375 122.007812 675.738281 139.9375 676.011719 C 144.335938 676.078125 148.664062 676.011719 153.0625 676.011719 L 651.71875 676.011719 C 657.535156 676.011719 663.421875 676.011719 669.238281 676.011719 C 688.992188 675.941406 703.875 660.382812 703.945312 640.832031 C 703.945312 632.714844 703.945312 624.867188 703.945312 616.949219 Z M 703.945312 616.949219 " fill-opacity="1" fill-rule="nonzero"/></g><g clip-path="url(#7a9b9a3603)"><path fill="#8a8a8a" d="M 703.808594 277.542969 L 703.808594 254.273438 C 702.523438 236.546875 688.046875 222.613281 670.050781 222.339844 C 668.832031 222.339844 667.683594 222.339844 666.464844 222.339844 L 521.421875 222.339844 L 521.421875 171.804688 C 521.421875 161.523438 518.511719 151.78125 511.070312 144.339844 C 504.101562 137.304688 494.699219 134.058594 484.890625 133.988281 C 476.027344 133.988281 467.234375 133.988281 458.371094 133.988281 L 328.820312 133.988281 C 327.128906 133.988281 325.4375 133.921875 323.8125 133.988281 C 304.398438 134.394531 289.109375 149.75 288.632812 169.167969 C 288.226562 186.824219 288.429688 204.617188 288.566406 222.339844 L 147.175781 222.339844 C 145.078125 222.339844 143.050781 222.339844 140.953125 222.339844 C 131.886719 222.339844 123.429688 225.453125 116.734375 231.675781 C 110.238281 237.765625 106.789062 246.085938 106.246094 254.8125 L 106.246094 287.625 C 106.246094 292.359375 106.246094 297.027344 106.246094 301.765625 C 106.246094 303.792969 106.246094 305.753906 106.382812 307.785156 C 106.449219 309.207031 106.585938 310.558594 106.71875 311.980469 C 106.71875 312.183594 106.789062 312.386719 106.789062 312.589844 C 107.125 314.550781 107.398438 316.511719 107.800781 318.40625 C 108.816406 323.140625 110.304688 327.808594 111.996094 332.34375 C 111.996094 332.410156 111.996094 332.410156 112.066406 332.476562 C 112.066406 332.546875 112.066406 332.546875 112.132812 332.613281 C 112.199219 332.75 112.199219 332.816406 112.269531 332.949219 C 112.671875 333.898438 113.148438 334.84375 113.621094 335.792969 C 114.5 337.550781 115.378906 339.242188 116.328125 340.933594 C 116.460938 341.203125 116.597656 341.476562 116.800781 341.679688 C 118.085938 343.84375 119.4375 346.007812 120.925781 348.039062 C 121.535156 348.917969 122.210938 349.660156 122.753906 350.539062 C 122.6875 350.40625 122.617188 350.269531 122.550781 350.132812 C 122.6875 350.335938 122.753906 350.472656 122.890625 350.609375 C 124.039062 352.027344 125.257812 353.449219 126.542969 354.800781 C 128.503906 356.898438 130.601562 358.929688 132.765625 360.890625 C 133.644531 361.703125 134.523438 362.445312 135.472656 363.191406 C 135.605469 363.328125 135.808594 363.460938 136.011719 363.597656 C 137.164062 364.339844 137.636719 364.613281 137.703125 364.679688 C 137.636719 364.679688 137.296875 364.410156 136.824219 364.136719 C 138.246094 365.085938 139.597656 366.167969 141.019531 367.113281 C 144.808594 369.550781 148.730469 371.714844 152.789062 373.609375 C 156.714844 374.828125 154.617188 374.355469 153.332031 373.878906 C 153.46875 373.949219 153.535156 373.949219 153.671875 374.015625 C 154.820312 374.421875 155.902344 374.894531 157.054688 375.234375 C 159.21875 375.976562 161.382812 376.652344 163.546875 377.261719 C 165.914062 377.871094 168.28125 378.414062 170.71875 378.886719 C 171.53125 379.023438 172.34375 379.15625 173.152344 379.292969 C 173.628906 379.359375 174.101562 379.359375 174.507812 379.425781 C 180.527344 379.96875 186.617188 379.832031 192.636719 379.832031 L 349.25 379.832031 C 349.722656 379.832031 350.195312 379.832031 350.671875 379.902344 L 350.671875 363.597656 C 350.671875 358.863281 349.992188 353.789062 353.851562 350.269531 C 357.164062 347.226562 361.496094 347.699219 365.621094 347.699219 L 447.480469 347.699219 C 448.289062 347.699219 449.171875 347.699219 449.980469 347.699219 C 455.257812 347.96875 458.980469 351.621094 459.65625 356.695312 C 459.722656 356.96875 459.722656 357.238281 459.722656 357.507812 C 459.722656 357.644531 459.722656 357.777344 459.722656 357.914062 L 459.722656 379.96875 C 460.199219 379.902344 460.671875 379.902344 461.144531 379.902344 L 462.023438 379.902344 C 479.953125 379.5625 497.878906 379.902344 515.738281 379.902344 L 627.226562 379.902344 C 630.136719 379.902344 632.976562 379.765625 635.886719 379.496094 C 636.429688 379.425781 637.039062 379.359375 637.578125 379.292969 C 638.253906 379.15625 639 379.089844 639.675781 378.953125 C 642.042969 378.480469 644.480469 378.007812 646.847656 377.332031 C 649.214844 376.722656 651.515625 375.976562 653.816406 375.164062 C 654.898438 374.757812 655.914062 374.355469 656.996094 373.949219 C 661.1875 371.984375 665.179688 369.890625 669.035156 367.386719 C 670.320312 366.574219 671.539062 365.761719 672.757812 364.882812 C 673.09375 364.613281 674.179688 363.800781 674.652344 363.460938 C 674.652344 363.460938 674.71875 363.394531 674.71875 363.394531 C 674.785156 363.328125 674.921875 363.257812 674.921875 363.191406 C 675.871094 362.445312 676.75 361.636719 677.628906 360.890625 C 679.792969 358.996094 681.824219 356.96875 683.851562 354.800781 C 685.136719 353.449219 686.355469 352.097656 687.503906 350.609375 C 687.574219 350.472656 687.707031 350.40625 687.777344 350.269531 C 688.316406 349.390625 689.0625 348.511719 689.671875 347.699219 C 690.957031 345.871094 692.171875 343.976562 693.253906 342.085938 C 693.457031 341.679688 693.730469 341.273438 693.933594 340.933594 C 694.945312 339.105469 695.960938 337.28125 696.839844 335.386719 C 697.246094 334.507812 697.71875 333.558594 698.125 332.679688 C 699.816406 328.214844 701.304688 323.683594 702.320312 318.949219 C 702.660156 317.460938 702.929688 315.902344 703.199219 314.414062 C 703.199219 314.414062 703.199219 314.347656 703.199219 314.347656 C 703.199219 314.347656 703.199219 314.28125 703.199219 314.28125 C 703.199219 314.210938 703.199219 314.144531 703.199219 314.078125 C 703.199219 314.007812 703.199219 313.941406 703.269531 313.875 C 703.335938 313.195312 703.472656 312.316406 703.539062 311.777344 C 703.675781 310.558594 703.742188 309.273438 703.808594 308.054688 C 703.875 306.09375 703.945312 304.132812 704.011719 302.167969 L 704.011719 288.773438 C 703.875 284.785156 703.808594 281.199219 703.808594 277.542969 Z M 487.800781 169.4375 C 487.800781 169.507812 487.800781 169.574219 487.867188 169.574219 C 487.867188 169.574219 487.867188 169.640625 487.867188 169.640625 C 487.933594 169.980469 488.003906 170.183594 487.867188 169.84375 C 487.800781 169.910156 487.664062 169.777344 487.597656 169.640625 C 487.933594 187.230469 487.800781 204.820312 487.664062 222.410156 L 322.390625 222.410156 L 322.390625 173.226562 C 322.390625 172.078125 322.390625 170.859375 322.390625 169.707031 C 322.1875 169.980469 322.054688 170.046875 321.984375 169.980469 C 321.851562 170.183594 321.851562 169.777344 321.917969 169.304688 C 321.582031 169.707031 321.378906 169.777344 321.917969 169.167969 C 321.917969 168.898438 321.984375 168.695312 322.054688 168.421875 C 322.054688 168.421875 322.054688 168.421875 321.984375 168.421875 C 321.984375 168.421875 321.984375 168.421875 322.054688 168.421875 C 322.121094 168.289062 322.121094 168.085938 322.1875 167.949219 C 321.714844 167.949219 321.851562 167.816406 322.257812 167.746094 C 322.324219 167.410156 322.460938 167.273438 322.460938 167.679688 C 322.59375 167.679688 322.730469 167.613281 322.933594 167.613281 C 322.933594 167.542969 322.933594 167.542969 322.933594 167.476562 C 322.933594 167.476562 322.933594 167.542969 322.933594 167.542969 C 323.203125 167.476562 323.40625 167.476562 323.675781 167.410156 C 323.949219 167.136719 324.082031 167.070312 324.152344 167.003906 C 324.082031 167.070312 323.949219 167.207031 323.746094 167.410156 C 324.285156 167.339844 324.691406 167.339844 324.488281 167.476562 C 324.558594 167.542969 324.488281 167.679688 324.21875 167.882812 C 324.761719 167.882812 325.300781 167.882812 325.84375 167.882812 L 480.15625 167.882812 C 482.183594 167.882812 484.144531 167.816406 486.175781 167.882812 C 486.039062 167.816406 485.972656 167.816406 485.90625 167.746094 C 485.429688 167.476562 485.566406 167.410156 485.90625 167.339844 C 485.703125 167.207031 485.769531 167.207031 485.972656 167.339844 C 486.039062 167.339844 486.175781 167.339844 486.242188 167.339844 C 485.972656 167.136719 485.835938 167.003906 485.769531 166.933594 C 485.769531 166.933594 485.972656 167.070312 486.3125 167.339844 C 486.582031 167.339844 486.851562 167.410156 487.121094 167.410156 C 487.257812 167.410156 487.324219 167.476562 487.460938 167.476562 C 487.460938 167.339844 487.460938 167.273438 487.527344 167.273438 C 487.527344 167.273438 487.597656 167.339844 487.597656 167.476562 C 488.207031 167.613281 488.476562 167.746094 487.597656 167.816406 C 487.597656 167.949219 487.597656 168.019531 487.597656 168.152344 C 487.800781 168.21875 487.933594 168.289062 488.003906 168.289062 C 487.933594 168.289062 487.730469 168.289062 487.597656 168.21875 L 487.597656 168.289062 C 487.664062 168.355469 487.800781 168.421875 487.933594 168.558594 C 487.867188 168.558594 487.800781 168.492188 487.664062 168.421875 C 487.664062 168.558594 487.730469 168.625 487.730469 168.761719 C 487.933594 169.03125 488.203125 169.304688 488.40625 169.4375 C 488.203125 169.304688 488.003906 169.101562 487.800781 168.964844 C 487.800781 169.234375 487.800781 169.304688 487.800781 169.4375 Z M 487.800781 169.4375 " fill-opacity="1" fill-rule="nonzero"/></g></svg>