<svg xmlns="http://www.w3.org/2000/svg" xmlns:xlink="http://www.w3.org/1999/xlink" width="1080" zoomAndPan="magnify" viewBox="0 0 810 809.999993" height="1080" preserveAspectRatio="xMidYMid meet" version="1.0"><defs><clipPath id="878f717166"><path d="M 92 219 L 729 219 L 729 593.742188 L 92 593.742188 Z M 92 219 " clip-rule="nonzero"/></clipPath></defs><g clip-path="url(#878f717166)"><path fill="#ff402c" d="M 671.050781 411.320312 C 676.507812 407.804688 680.808594 404.527344 681.558594 403.777344 C 683.40625 401.929688 671.222656 397.5 662.363281 395.285156 C 654.800781 393.394531 625.964844 388.554688 597.472656 400.054688 L 591.207031 385.9375 C 604.746094 377.105469 617.523438 370.554688 627.480469 364.199219 C 659.082031 344.03125 651.589844 325.0625 635.550781 301.003906 C 626.628906 287.625 597.449219 255.050781 593.636719 252.257812 C 582.835938 241.589844 562.789062 223.925781 558.949219 221.289062 C 552.035156 216.535156 535.171875 223.660156 530.761719 226.574219 C 530.203125 226.945312 529.515625 227.363281 528.769531 227.820312 C 523.824219 230.855469 518.707031 233.992188 519.910156 238.261719 C 520.917969 241.828125 525.609375 243.21875 536.644531 243.21875 C 550.207031 243.21875 571.304688 258.007812 579.871094 268.1875 L 579.917969 268.148438 C 584.472656 274.042969 586.902344 279.511719 587.144531 282.179688 C 587.78125 289.171875 575.78125 299.167969 553.429688 300.800781 L 546.167969 284.441406 C 548.457031 282.007812 549.636719 279.242188 548.820312 276.800781 C 546.804688 270.75 551.511719 264.699219 546.804688 261.335938 C 542.097656 257.972656 535.375 255.957031 530.671875 259.320312 C 525.964844 262.679688 524.621094 264.023438 519.242188 264.023438 C 513.863281 264.023438 510.5 264.023438 507.8125 267.386719 C 505.121094 270.75 508.484375 274.109375 508.484375 274.109375 L 495.035156 281.503906 C 495.035156 281.503906 494.363281 290.246094 502.433594 287.554688 L 519.914062 280.832031 C 519.914062 280.832031 521.722656 289.835938 529.875 290.820312 L 535.601562 303.722656 C 526.964844 306.40625 517.304688 310.714844 508.445312 315.066406 C 504.644531 308.894531 496.660156 297.769531 485.757812 292.445312 C 471.730469 285.597656 425.90625 261.550781 394.695312 282.328125 C 366.484375 301.105469 348 318.640625 339.03125 330.171875 C 336.707031 329.257812 334.480469 328.648438 332.488281 328.5 C 322.914062 327.785156 318.855469 327.464844 298.300781 329.234375 C 264.117188 332.183594 248.921875 324.078125 242.847656 321.128906 C 242.277344 320.855469 241.679688 320.65625 241.074219 320.523438 C 239.421875 312.828125 236.527344 301.484375 230.933594 301.738281 C 223.628906 302.070312 186.789062 304.617188 178.289062 302.78125 C 169.792969 300.941406 155.636719 295.355469 152.351562 295.503906 C 150.1875 295.601562 148.449219 297.796875 148.371094 300.007812 C 136.625 294.910156 125.027344 289.714844 121.226562 289.714844 C 116.054688 289.714844 116.054688 294.144531 122.699219 295.988281 C 129.347656 297.835938 139.3125 321.089844 138.574219 323.304688 C 137.835938 325.519531 149.648438 334.007812 187.667969 345.082031 C 206.359375 350.527344 234.601562 363.914062 259.273438 376.558594 C 258.355469 383.90625 262.46875 405.671875 260.402344 406.554688 C 257.820312 407.664062 254.125 407.625 244.882812 401.929688 C 232.703125 394.425781 220.152344 393.617188 220.890625 395.285156 C 220.890625 395.285156 220.910156 396.578125 227.066406 402.3125 C 189.832031 387.269531 145.511719 396.144531 117.171875 427.707031 C 81.011719 467.980469 84.359375 530.164062 124.632812 566.320312 C 143.347656 583.125 166.792969 591.394531 190.160156 591.394531 C 217.074219 591.394531 243.890625 580.417969 263.246094 558.859375 C 273.644531 547.277344 280.757812 533.882812 284.683594 519.816406 C 296.207031 523.886719 304.601562 526.882812 306.894531 527.800781 C 316.125 531.492188 321.292969 532.96875 329.414062 530.753906 C 337.535156 528.539062 337.535156 535.183594 337.535156 535.183594 L 364.109375 536.292969 C 364.109375 536.292969 369.277344 533.339844 371.125 533.339844 C 372.96875 533.339844 376.292969 536.292969 376.292969 536.292969 C 376.292969 536.292969 432.398438 537.398438 438.304688 537.03125 C 444.210938 536.660156 445.6875 532.601562 451.960938 531.863281 C 458.238281 531.125 497.734375 538.136719 508.808594 539.246094 C 519.882812 540.351562 515.453125 530.386719 513.238281 527.433594 C 511.902344 525.652344 509.296875 518.375 506.660156 510.296875 C 508.519531 510.75 510.660156 507.4375 513.1875 497.316406 C 526.214844 445.214844 551.5 415.730469 576.65625 396.25 L 581.945312 408.167969 C 550.304688 428.917969 540.179688 463.207031 540.179688 463.207031 C 540.179688 463.207031 542.785156 463.996094 545.796875 464.515625 C 541.6875 475.121094 539.40625 486.625 539.40625 498.664062 C 539.40625 550.933594 581.933594 593.460938 634.203125 593.460938 C 686.472656 593.460938 729 550.933594 729 498.664062 C 729 459.453125 705.074219 425.726562 671.050781 411.320312 Z M 236.234375 534.609375 C 213.445312 559.984375 174.261719 562.09375 148.886719 539.308594 C 123.511719 516.523438 121.398438 477.339844 144.183594 451.960938 C 151.671875 443.625 160.929688 437.8125 170.878906 434.554688 C 163.859375 443.691406 155.949219 454.628906 153.710938 459.511719 C 149.8125 468.011719 161.542969 475.148438 174.558594 480.601562 C 167.832031 488.894531 168.703125 501.082031 176.734375 508.292969 C 185.023438 515.734375 197.773438 515.046875 205.214844 506.757812 C 208.085938 503.5625 209.734375 499.703125 210.214844 495.738281 L 211.808594 494.171875 C 223.753906 498.398438 237.285156 503.152344 250.335938 507.738281 C 248.027344 517.425781 243.34375 526.691406 236.234375 534.609375 Z M 331.257812 443.273438 C 326.832031 441.054688 317.972656 431.828125 312.433594 428.136719 C 306.898438 424.445312 301.308594 422.453125 298.726562 421.347656 C 296.140625 420.242188 296.929688 417.433594 303.574219 413.003906 C 307.988281 410.0625 307.71875 405.210938 305.429688 401.304688 C 307.621094 402.527344 309.140625 403.382812 309.851562 403.777344 C 316.019531 407.203125 325.03125 413.792969 325.410156 411.773438 C 327.011719 413.777344 328.296875 415.394531 329.097656 416.414062 C 330.199219 417.816406 330.996094 419.097656 331.679688 420.214844 C 333.566406 425.96875 336.195312 435.421875 338.273438 439.582031 C 341.226562 445.488281 335.6875 445.488281 331.257812 443.273438 Z M 582.4375 262.113281 C 577.550781 256.945312 570.46875 251.265625 563.277344 246.820312 C 556.222656 242.457031 545.875 237.257812 536.644531 237.257812 C 530.9375 237.257812 528.035156 236.84375 526.597656 236.488281 C 528.03125 235.273438 530.609375 233.695312 531.886719 232.910156 C 532.699219 232.414062 533.445312 231.957031 534.050781 231.554688 C 539.726562 227.804688 552.664062 224.207031 555.570312 226.207031 C 558.792969 228.421875 578.222656 245.445312 589.195312 256.257812 C 587.015625 258.285156 584.527344 260.394531 582.4375 262.113281 Z M 634.207031 563.875 C 598.246094 563.875 568.992188 534.621094 568.992188 498.664062 C 568.992188 476.074219 580.542969 456.136719 598.039062 444.429688 L 617.261719 487.746094 C 615.230469 490.894531 614.035156 494.636719 614.035156 498.664062 C 614.035156 509.800781 623.066406 518.832031 634.207031 518.832031 C 645.34375 518.832031 654.375 509.800781 654.375 498.664062 C 654.375 487.523438 645.34375 478.496094 634.207031 478.496094 C 633.570312 478.496094 632.941406 478.53125 632.324219 478.589844 L 613.757812 436.75 C 620.195312 434.621094 627.066406 433.449219 634.207031 433.449219 C 670.164062 433.449219 699.417969 462.703125 699.417969 498.664062 C 699.417969 534.621094 670.167969 563.875 634.207031 563.875 Z M 634.207031 563.875 " fill-opacity="1" fill-rule="nonzero"/></g></svg>