<svg xmlns="http://www.w3.org/2000/svg" xmlns:xlink="http://www.w3.org/1999/xlink" width="1080" zoomAndPan="magnify" viewBox="0 0 810 809.999993" height="1080" preserveAspectRatio="xMidYMid meet" version="1.0"><defs><clipPath id="3a114a4b2a"><path d="M 81 81 L 729 81 L 729 729 L 81 729 Z M 81 81 " clip-rule="nonzero"/></clipPath><clipPath id="edfc407cc7"><path d="M 405 81 C 226.058594 81 81 226.058594 81 405 C 81 583.941406 226.058594 729 405 729 C 583.941406 729 729 583.941406 729 405 C 729 226.058594 583.941406 81 405 81 Z M 405 81 " clip-rule="nonzero"/></clipPath><clipPath id="c8a931578a"><path d="M 217.085938 367.074219 L 589.910156 367.074219 L 589.910156 443 L 217.085938 443 Z M 217.085938 367.074219 " clip-rule="nonzero"/></clipPath></defs><g clip-path="url(#3a114a4b2a)"><g clip-path="url(#edfc407cc7)"><path fill="#ff402c" d="M 81 81 L 729 81 L 729 729 L 81 729 Z M 81 81 " fill-opacity="1" fill-rule="nonzero"/></g></g><g clip-path="url(#c8a931578a)"><path fill="#fafafa" d="M 292.476562 404.925781 C 292.476562 425.746094 275.597656 442.621094 254.78125 442.621094 C 233.964844 442.621094 217.085938 425.746094 217.085938 404.925781 C 217.085938 384.109375 233.964844 367.234375 254.78125 367.234375 C 275.597656 367.234375 292.476562 384.109375 292.476562 404.925781 Z M 405.035156 367.234375 C 384.21875 367.234375 367.34375 384.109375 367.34375 404.925781 C 367.34375 425.746094 384.21875 442.621094 405.035156 442.621094 C 425.855469 442.621094 442.730469 425.746094 442.730469 404.925781 C 442.730469 384.109375 425.855469 367.234375 405.035156 367.234375 Z M 555.128906 367.234375 C 534.3125 367.234375 517.433594 384.109375 517.433594 404.925781 C 517.433594 425.746094 534.3125 442.621094 555.128906 442.621094 C 575.949219 442.621094 592.824219 425.746094 592.824219 404.925781 C 592.824219 384.109375 575.949219 367.234375 555.128906 367.234375 Z M 555.128906 367.234375 " fill-opacity="1" fill-rule="nonzero"/></g></svg>