<svg xmlns="http://www.w3.org/2000/svg" xmlns:xlink="http://www.w3.org/1999/xlink" width="1080" zoomAndPan="magnify" viewBox="0 0 810 809.999993" height="1080" preserveAspectRatio="xMidYMid meet" version="1.0"><defs><clipPath id="f68aeaa417"><path d="M 135 125.632812 L 675 125.632812 L 675 684.382812 L 135 684.382812 Z M 135 125.632812 " clip-rule="nonzero"/></clipPath></defs><g clip-path="url(#f68aeaa417)"><path fill="#ff402c" d="M 268.226562 319.226562 L 500.714844 551.785156 L 427.800781 578.285156 C 381.890625 564.460938 342.425781 541.398438 310.484375 509.457031 C 278.613281 477.585938 255.476562 438.050781 241.726562 392.140625 Z M 233.847656 413.914062 L 189.800781 535.167969 C 200.617188 555.222656 214.148438 573.632812 230.269531 589.746094 C 246.386719 605.859375 264.71875 619.398438 284.84375 630.214844 L 406.03125 586.164062 C 365.277344 571.339844 329.828125 549.0625 300.386719 519.625 C 270.949219 490.191406 248.605469 454.667969 233.847656 413.914062 Z M 183.429688 552.789062 L 135.585938 684.359375 L 267.15625 636.589844 C 250.109375 626.273438 234.28125 614.027344 220.097656 599.847656 C 205.992188 585.667969 193.738281 569.90625 183.429688 552.789062 Z M 468.359375 422.328125 C 470.320312 422.328125 472.269531 421.527344 473.683594 419.960938 C 515.214844 373.820312 604.363281 380.03125 652.753906 402.265625 C 656.359375 403.921875 660.605469 402.34375 662.253906 398.746094 C 663.902344 395.152344 662.332031 390.894531 658.734375 389.246094 C 608.332031 366.085938 511.269531 356.785156 463.035156 410.378906 C 460.386719 413.316406 460.625 417.847656 463.5625 420.488281 C 464.9375 421.71875 466.648438 422.328125 468.359375 422.328125 Z M 612.972656 459.964844 C 581.171875 445.351562 519.824219 439.597656 489.171875 473.648438 C 486.523438 476.585938 486.761719 481.117188 489.703125 483.761719 C 491.070312 484.996094 492.78125 485.597656 494.488281 485.597656 C 496.449219 485.597656 498.402344 484.800781 499.816406 483.230469 C 524.53125 455.769531 577.941406 459.625 606.996094 472.976562 C 610.585938 474.625 614.84375 473.054688 616.492188 469.457031 C 618.140625 465.859375 616.566406 461.613281 612.972656 459.964844 Z M 404.820312 358.785156 C 406.523438 358.785156 408.238281 358.175781 409.609375 356.945312 C 463.199219 308.710938 453.898438 211.65625 430.738281 161.246094 C 429.085938 157.648438 424.820312 156.082031 421.242188 157.726562 C 417.648438 159.375 416.074219 163.632812 417.722656 167.226562 C 439.953125 215.609375 446.171875 304.761719 400.027344 346.296875 C 397.085938 348.941406 396.847656 353.472656 399.496094 356.410156 C 400.910156 357.984375 402.859375 358.785156 404.820312 358.785156 Z M 341.550781 332.652344 C 343.253906 332.652344 344.96875 332.050781 346.335938 330.8125 C 380.398438 300.164062 374.636719 238.820312 360.019531 207.011719 C 358.367188 203.417969 354.105469 201.839844 350.523438 203.492188 C 346.929688 205.140625 345.355469 209.398438 347.003906 212.988281 C 360.351562 242.042969 364.21875 295.445312 336.753906 320.164062 C 333.816406 322.808594 333.578125 327.339844 336.226562 330.277344 C 337.632812 331.847656 339.589844 332.652344 341.550781 332.652344 Z M 381.960938 145.976562 C 384.179688 143.757812 385.398438 140.746094 385.398438 137.523438 C 385.398438 134.371094 384.179688 131.367188 381.960938 129.140625 C 379.671875 126.851562 376.664062 125.632812 373.515625 125.632812 C 370.289062 125.632812 367.285156 126.851562 365.0625 129.140625 C 362.769531 131.359375 361.550781 134.371094 361.550781 137.523438 C 361.550781 140.746094 362.769531 143.753906 365.0625 145.976562 C 369.574219 150.484375 377.453125 150.484375 381.960938 145.976562 Z M 671.460938 443.921875 C 669.171875 441.703125 666.230469 440.488281 663.007812 440.488281 C 659.855469 440.488281 656.851562 441.703125 654.554688 443.921875 C 652.335938 446.214844 651.046875 449.226562 651.046875 452.375 C 651.046875 455.601562 652.335938 458.605469 654.554688 460.828125 C 659.066406 465.34375 666.945312 465.34375 671.457031 460.828125 C 673.671875 458.613281 674.964844 455.601562 674.964844 452.375 C 674.96875 449.226562 673.683594 446.214844 671.460938 443.921875 Z M 565.53125 508.742188 C 564.027344 508.742188 562.59375 509.382812 561.519531 510.460938 C 560.449219 511.460938 559.871094 512.898438 559.871094 514.472656 C 559.871094 515.976562 560.441406 517.414062 561.519531 518.414062 C 563.671875 520.5625 567.390625 520.5625 569.542969 518.414062 C 571.761719 516.261719 571.761719 512.613281 569.542969 510.460938 C 568.472656 509.390625 567.035156 508.742188 565.53125 508.742188 Z M 306.40625 282.34375 C 308.558594 284.421875 312.277344 284.421875 314.429688 282.34375 C 315.5 281.273438 316.078125 279.835938 316.078125 278.332031 C 316.078125 276.832031 315.5 275.394531 314.429688 274.320312 C 313.355469 273.25 311.921875 272.601562 310.417969 272.601562 C 308.914062 272.601562 307.476562 273.242188 306.40625 274.320312 C 304.183594 276.539062 304.183594 280.121094 306.40625 282.34375 Z M 277.46875 190.667969 L 273.171875 205.496094 L 287.929688 201.128906 C 289.292969 200.699219 290.648438 200.699219 291.941406 201.128906 L 306.769531 205.425781 L 302.398438 190.597656 C 302.042969 189.304688 302.042969 187.875 302.398438 186.585938 L 306.695312 171.757812 L 291.941406 176.125 C 290.578125 176.554688 289.21875 176.554688 287.929688 176.125 L 273.101562 171.828125 L 277.46875 186.65625 C 277.828125 187.941406 277.828125 189.304688 277.46875 190.667969 Z M 643.53125 524 L 635.148438 516.121094 L 633 527.4375 C 632.785156 528.800781 632.136719 530.011719 631.210938 531.015625 L 623.332031 539.472656 L 634.644531 541.621094 C 636.007812 541.835938 637.226562 542.480469 638.226562 543.410156 L 646.679688 551.289062 L 648.757812 539.972656 C 649.042969 538.609375 649.691406 537.390625 650.621094 536.390625 L 658.5 527.9375 L 647.183594 525.859375 C 645.820312 525.574219 644.53125 524.925781 643.53125 524 Z M 528.933594 309.34375 L 546.980469 324.527344 L 549.988281 301.105469 C 550.199219 299.742188 550.777344 298.457031 551.636719 297.453125 L 566.824219 279.332031 L 543.402344 276.328125 C 542.039062 276.113281 540.753906 275.613281 539.675781 274.679688 L 521.628906 259.492188 L 518.546875 282.914062 C 518.402344 284.277344 517.832031 285.5625 516.972656 286.640625 L 501.785156 304.761719 L 525.207031 307.765625 C 526.570312 307.914062 527.863281 308.488281 528.933594 309.34375 Z M 528.933594 309.34375 " fill-opacity="1" fill-rule="nonzero"/></g></svg>