<svg xmlns="http://www.w3.org/2000/svg" xmlns:xlink="http://www.w3.org/1999/xlink" width="1080" zoomAndPan="magnify" viewBox="0 0 810 809.999993" height="1080" preserveAspectRatio="xMidYMid meet" version="1.0"><defs><clipPath id="7c2a306414"><path d="M 334 113.398438 L 480 113.398438 L 480 258 L 334 258 Z M 334 113.398438 " clip-rule="nonzero"/></clipPath><clipPath id="0f8a6743a3"><path d="M 81.140625 454 L 728.863281 454 L 728.863281 696.613281 L 81.140625 696.613281 Z M 81.140625 454 " clip-rule="nonzero"/></clipPath></defs><g clip-path="url(#7c2a306414)"><path fill="#ffffff" d="M 407.199219 113.398438 C 367.371094 113.398438 334.96875 145.808594 334.96875 185.632812 C 334.96875 225.46875 367.371094 257.871094 407.199219 257.871094 C 447.03125 257.871094 479.433594 225.46875 479.433594 185.632812 C 479.433594 145.808594 447.03125 113.398438 407.199219 113.398438 " fill-opacity="1" fill-rule="nonzero"/></g><path fill="#ffffff" d="M 554.804688 179.199219 C 521.117188 179.199219 493.714844 206.601562 493.714844 240.289062 C 493.714844 273.96875 521.117188 301.375 554.804688 301.375 C 588.484375 301.375 615.890625 273.96875 615.890625 240.289062 C 615.890625 206.601562 588.484375 179.199219 554.804688 179.199219 " fill-opacity="1" fill-rule="nonzero"/><path fill="#ffffff" d="M 257.53125 179.199219 C 223.847656 179.199219 196.445312 206.601562 196.445312 240.289062 C 196.445312 273.96875 223.847656 301.375 257.53125 301.375 C 291.21875 301.375 318.621094 273.96875 318.621094 240.289062 C 318.621094 206.601562 291.21875 179.199219 257.53125 179.199219 " fill-opacity="1" fill-rule="nonzero"/><g clip-path="url(#0f8a6743a3)"><path fill="#ffffff" d="M 727.074219 534.066406 C 718.015625 504.519531 684.9375 494.429688 655.878906 502.890625 L 542.90625 537.121094 C 539.96875 538.011719 538.804688 541.496094 540.542969 544.023438 C 550.144531 557.988281 553.375 576.59375 546.933594 593.851562 C 536.519531 621.734375 505.425781 635.824219 478.210938 625.660156 L 367.171875 584.191406 C 364.734375 583.285156 363.570312 580.507812 364.621094 578.132812 C 365.589844 575.945312 368.097656 574.886719 370.332031 575.726562 L 479.785156 616.601562 C 503.164062 625.332031 529.5625 613.753906 538.210938 590.34375 C 547.65625 564.757812 533.125 540.316406 507.539062 530.761719 L 326.671875 463.214844 C 300.753906 452.433594 272.511719 450.964844 244.304688 461.175781 L 135.546875 499.980469 C 102.089844 511.917969 80.140625 544.046875 81.175781 579.558594 C 82.78125 634.503906 136.996094 672.414062 189.089844 654.875 C 211.707031 647.257812 232.773438 641.714844 245.941406 641.816406 C 303.582031 642.261719 377.425781 683.53125 402.667969 692.410156 C 418.511719 697.976562 428.550781 698.007812 442.875 692.519531 C 447.921875 690.578125 452.976562 688.644531 458.160156 687.121094 C 458.304688 687.078125 458.453125 687.027344 458.589844 686.96875 L 685.910156 592.523438 C 686.054688 592.460938 686.203125 592.410156 686.347656 592.367188 C 715.285156 583.851562 735.085938 560.175781 727.074219 534.066406 " fill-opacity="1" fill-rule="nonzero"/></g><path fill="#ffffff" d="M 617.96875 346.050781 C 601.101562 329.183594 578.664062 319.890625 554.804688 319.890625 C 536.089844 319.890625 518.078125 325.699219 503.03125 336.417969 C 497.90625 325.851562 491 316.101562 482.449219 307.554688 C 462.355469 287.457031 435.628906 276.386719 407.199219 276.386719 C 378.773438 276.386719 352.046875 287.457031 331.945312 307.554688 C 323.097656 316.398438 316.007812 326.53125 310.835938 337.527344 C 295.5 326.089844 276.960938 319.890625 257.53125 319.890625 C 233.671875 319.890625 211.242188 329.183594 194.367188 346.050781 C 177.492188 362.925781 168.207031 385.359375 168.207031 409.214844 L 168.207031 453.460938 C 168.207031 461.609375 169.289062 469.589844 171.386719 477.242188 L 245.472656 450.808594 C 262.824219 444.523438 280.183594 442.671875 297.015625 444.683594 L 297.015625 404.246094 C 297.015625 391.625 299.148438 379.273438 303.339844 367.535156 C 304.480469 364.34375 307.992188 362.683594 311.179688 363.820312 C 314.367188 364.96875 316.027344 368.476562 314.890625 371.664062 C 311.167969 382.078125 309.285156 393.039062 309.285156 404.246094 L 309.285156 446.847656 C 315.574219 448.316406 321.773438 450.328125 327.84375 452.851562 L 483.179688 510.863281 C 483.179688 510.863281 485.160156 511.65625 488.1875 512.878906 C 498.226562 497.292969 503.5 479.375 503.5 460.507812 L 503.5 404.246094 C 503.5 392.414062 501.398438 380.867188 497.253906 369.921875 C 496.054688 366.753906 497.644531 363.214844 500.816406 362.015625 C 503.984375 360.816406 507.523438 362.417969 508.722656 365.578125 C 513.394531 377.914062 515.761719 390.921875 515.761719 404.246094 L 515.761719 460.507812 C 515.761719 473.074219 513.648438 485.386719 509.484375 497.117188 C 506.945312 504.265625 503.679688 511.09375 499.738281 517.539062 C 508.492188 521.085938 517.804688 524.894531 519.601562 525.769531 C 529.613281 530.625 541.136719 527.644531 544.074219 526.753906 L 630.789062 500.476562 C 639.484375 486.496094 644.136719 470.335938 644.136719 453.460938 L 644.136719 409.21875 C 644.136719 385.359375 634.839844 362.925781 617.96875 346.050781 " fill-opacity="1" fill-rule="nonzero"/></svg>