<svg xmlns="http://www.w3.org/2000/svg" xmlns:xlink="http://www.w3.org/1999/xlink" width="1080" zoomAndPan="magnify" viewBox="0 0 810 809.999993" height="1080" preserveAspectRatio="xMidYMid meet" version="1.0"><defs><clipPath id="87000445a7"><path d="M 141 304 L 539 304 L 539 618.324219 L 141 618.324219 Z M 141 304 " clip-rule="nonzero"/></clipPath><clipPath id="b96f1406c2"><path d="M 299 191.574219 L 669 191.574219 L 669 506 L 299 506 Z M 299 191.574219 " clip-rule="nonzero"/></clipPath></defs><g clip-path="url(#87000445a7)"><path fill="#ffffff" d="M 515.421875 531.484375 C 511.082031 525.742188 502.9375 524.539062 497.125 528.800781 C 470.75 548.144531 439.507812 558.367188 406.78125 558.367188 C 368.21875 558.367188 331.351562 543.914062 302.96875 517.679688 C 276.527344 493.234375 259.644531 460.664062 254.941406 425.332031 L 294.074219 425.316406 C 299.019531 425.3125 303.542969 422.539062 305.792969 418.140625 C 308.042969 413.738281 307.632812 408.445312 304.742188 404.4375 L 236.589844 310.097656 C 234.144531 306.710938 230.234375 304.6875 226.054688 304.640625 C 221.878906 304.605469 217.925781 306.542969 215.402344 309.878906 L 144.175781 404.261719 C 141.164062 408.25 140.667969 413.597656 142.898438 418.070312 C 145.128906 422.539062 149.691406 425.363281 154.683594 425.363281 C 154.6875 425.363281 154.6875 425.363281 154.691406 425.363281 L 194.640625 425.339844 C 204.945312 534.105469 297.019531 618.421875 406.929688 618.421875 C 452.585938 618.421875 496.199219 604.082031 533.058594 576.953125 C 535.894531 574.867188 537.773438 571.730469 538.28125 568.25 C 538.789062 564.761719 537.882812 561.222656 535.757812 558.414062 Z M 515.421875 531.484375 " fill-opacity="1" fill-rule="nonzero"/></g><g clip-path="url(#b96f1406c2)"><path fill="#ffffff" d="M 667.042969 391.851562 C 664.792969 387.445312 660.265625 384.675781 655.320312 384.671875 L 619.085938 384.652344 C 608.753906 275.886719 516.746094 191.566406 406.765625 191.566406 C 371.894531 191.566406 337.089844 200.355469 306.117188 216.984375 C 302.773438 218.78125 300.363281 221.9375 299.511719 225.636719 C 298.664062 229.339844 299.449219 233.222656 301.675781 236.300781 L 321.578125 263.839844 C 325.363281 269.078125 332.386719 270.800781 338.164062 267.894531 C 359.34375 257.246094 383.136719 251.621094 406.976562 251.621094 C 445.523438 251.621094 482.378906 266.066406 510.75 292.296875 C 537.179688 316.738281 554.066406 349.304688 558.78125 384.644531 L 515.941406 384.625 C 515.941406 384.625 515.9375 384.625 515.9375 384.625 C 510.941406 384.625 506.378906 387.449219 504.148438 391.921875 C 501.921875 396.390625 502.414062 401.742188 505.425781 405.726562 L 576.660156 500.085938 C 579.148438 503.382812 583.039062 505.320312 587.167969 505.320312 C 587.214844 505.320312 587.257812 505.320312 587.304688 505.320312 C 591.480469 505.273438 595.390625 503.25 597.839844 499.863281 L 665.988281 405.554688 C 668.882812 401.546875 669.289062 396.253906 667.042969 391.851562 Z M 667.042969 391.851562 " fill-opacity="1" fill-rule="nonzero"/></g></svg>