<svg xmlns="http://www.w3.org/2000/svg" xmlns:xlink="http://www.w3.org/1999/xlink" width="1080" zoomAndPan="magnify" viewBox="0 0 810 809.999993" height="1080" preserveAspectRatio="xMidYMid meet" version="1.0"><defs><clipPath id="399ba75d8f"><path d="M 212.375 256.152344 L 597.875 256.152344 L 597.875 641.652344 L 212.375 641.652344 Z M 212.375 256.152344 " clip-rule="nonzero"/></clipPath></defs><g clip-path="url(#399ba75d8f)"><path fill="#ffffff" d="M 540.167969 532.804688 C 575.660156 558.324219 597.617188 593.816406 597.617188 633.207031 C 597.617188 637.734375 593.957031 641.394531 589.480469 641.394531 L 220.515625 641.394531 C 216.035156 641.394531 212.375 637.734375 212.375 633.207031 C 212.375 593.816406 234.335938 558.324219 269.824219 532.804688 C 304.546875 507.859375 352.363281 492.402344 404.996094 492.402344 C 457.628906 492.402344 505.449219 507.859375 540.167969 532.804688 Z M 404.996094 256.152344 C 464.804688 256.152344 513.296875 305.027344 513.296875 365.320312 C 513.296875 425.65625 464.804688 474.535156 404.996094 474.535156 C 345.1875 474.535156 296.695312 425.65625 296.695312 365.320312 C 296.695312 305.027344 345.1875 256.152344 404.996094 256.152344 Z M 404.996094 256.152344 " fill-opacity="1" fill-rule="evenodd"/></g></svg>