<svg xmlns="http://www.w3.org/2000/svg" xmlns:xlink="http://www.w3.org/1999/xlink" width="1080" zoomAndPan="magnify" viewBox="0 0 810 809.999993" height="1080" preserveAspectRatio="xMidYMid meet" version="1.0"><defs><clipPath id="b87ead5bd1"><path d="M 212.375 256.152344 L 597.875 256.152344 L 597.875 641.652344 L 212.375 641.652344 Z M 212.375 256.152344 " clip-rule="nonzero"/></clipPath><clipPath id="040419df49"><path d="M 492.433594 168.601562 L 648 168.601562 L 648 324 L 492.433594 324 Z M 492.433594 168.601562 " clip-rule="nonzero"/></clipPath></defs><g clip-path="url(#b87ead5bd1)"><path fill="#ffffff" d="M 540.167969 532.804688 C 575.660156 558.324219 597.617188 593.816406 597.617188 633.207031 C 597.617188 637.734375 593.957031 641.394531 589.480469 641.394531 L 220.515625 641.394531 C 216.035156 641.394531 212.375 637.734375 212.375 633.207031 C 212.375 593.816406 234.335938 558.324219 269.824219 532.804688 C 304.546875 507.859375 352.363281 492.402344 404.996094 492.402344 C 457.628906 492.402344 505.449219 507.859375 540.167969 532.804688 Z M 404.996094 256.152344 C 464.804688 256.152344 513.296875 305.027344 513.296875 365.320312 C 513.296875 425.65625 464.804688 474.535156 404.996094 474.535156 C 345.1875 474.535156 296.695312 425.65625 296.695312 365.320312 C 296.695312 305.027344 345.1875 256.152344 404.996094 256.152344 Z M 404.996094 256.152344 " fill-opacity="1" fill-rule="evenodd"/></g><g clip-path="url(#040419df49)"><path fill="#ffffff" d="M 570.074219 168.425781 C 569.230469 168.4375 568.394531 168.53125 567.570312 168.707031 C 566.746094 168.886719 565.945312 169.140625 565.167969 169.476562 C 564.394531 169.808594 563.660156 170.214844 562.964844 170.695312 C 562.269531 171.175781 561.625 171.714844 561.039062 172.320312 C 560.449219 172.925781 559.925781 173.582031 559.464844 174.292969 C 559.007812 175 558.621094 175.746094 558.308594 176.53125 C 557.996094 177.316406 557.765625 178.125 557.609375 178.953125 C 557.457031 179.785156 557.386719 180.621094 557.398438 181.464844 L 557.398438 232.921875 L 505.941406 232.921875 C 505.089844 232.910156 504.242188 232.984375 503.40625 233.140625 C 502.566406 233.292969 501.753906 233.53125 500.960938 233.851562 C 500.171875 234.167969 499.417969 234.558594 498.707031 235.027344 C 497.992188 235.496094 497.332031 236.027344 496.726562 236.625 C 496.117188 237.222656 495.578125 237.875 495.097656 238.582031 C 494.621094 239.289062 494.21875 240.035156 493.890625 240.820312 C 493.5625 241.609375 493.3125 242.417969 493.144531 243.253906 C 492.976562 244.089844 492.894531 244.933594 492.894531 245.789062 C 492.894531 246.640625 492.976562 247.484375 493.144531 248.320312 C 493.3125 249.15625 493.5625 249.964844 493.890625 250.753906 C 494.21875 251.539062 494.621094 252.285156 495.097656 252.992188 C 495.578125 253.699219 496.117188 254.351562 496.726562 254.949219 C 497.332031 255.546875 497.992188 256.082031 498.707031 256.546875 C 499.417969 257.015625 500.171875 257.40625 500.960938 257.726562 C 501.753906 258.042969 502.566406 258.28125 503.40625 258.4375 C 504.242188 258.59375 505.089844 258.664062 505.941406 258.652344 L 557.398438 258.652344 L 557.398438 310.109375 C 557.386719 310.960938 557.457031 311.808594 557.613281 312.644531 C 557.769531 313.484375 558.007812 314.296875 558.324219 315.089844 C 558.644531 315.878906 559.035156 316.632812 559.503906 317.34375 C 559.96875 318.058594 560.503906 318.71875 561.101562 319.324219 C 561.699219 319.933594 562.351562 320.472656 563.058594 320.953125 C 563.765625 321.429688 564.511719 321.832031 565.296875 322.160156 C 566.082031 322.488281 566.894531 322.738281 567.730469 322.90625 C 568.566406 323.074219 569.410156 323.15625 570.261719 323.15625 C 571.117188 323.15625 571.960938 323.074219 572.796875 322.90625 C 573.632812 322.738281 574.441406 322.488281 575.226562 322.160156 C 576.015625 321.832031 576.761719 321.429688 577.46875 320.953125 C 578.171875 320.472656 578.824219 319.933594 579.425781 319.324219 C 580.023438 318.71875 580.554688 318.058594 581.023438 317.34375 C 581.492188 316.632812 581.882812 315.878906 582.199219 315.089844 C 582.519531 314.296875 582.753906 313.484375 582.910156 312.644531 C 583.066406 311.808594 583.140625 310.960938 583.128906 310.109375 L 583.128906 258.652344 L 634.585938 258.652344 C 635.4375 258.664062 636.28125 258.59375 637.121094 258.4375 C 637.960938 258.28125 638.773438 258.042969 639.5625 257.726562 C 640.355469 257.40625 641.105469 257.015625 641.820312 256.546875 C 642.53125 256.082031 643.191406 255.546875 643.800781 254.949219 C 644.40625 254.351562 644.949219 253.699219 645.425781 252.992188 C 645.902344 252.285156 646.308594 251.539062 646.636719 250.753906 C 646.964844 249.964844 647.214844 249.15625 647.382812 248.320312 C 647.550781 247.484375 647.632812 246.640625 647.632812 245.789062 C 647.632812 244.933594 647.550781 244.089844 647.382812 243.253906 C 647.214844 242.417969 646.964844 241.609375 646.636719 240.820312 C 646.308594 240.035156 645.902344 239.289062 645.425781 238.582031 C 644.949219 237.875 644.40625 237.222656 643.800781 236.625 C 643.191406 236.027344 642.53125 235.496094 641.820312 235.027344 C 641.105469 234.558594 640.355469 234.167969 639.5625 233.851562 C 638.773438 233.53125 637.960938 233.292969 637.121094 233.140625 C 636.28125 232.984375 635.4375 232.910156 634.585938 232.921875 L 583.128906 232.921875 L 583.128906 181.464844 C 583.140625 180.605469 583.066406 179.753906 582.90625 178.90625 C 582.746094 178.0625 582.503906 177.242188 582.179688 176.445312 C 581.859375 175.648438 581.457031 174.890625 580.980469 174.175781 C 580.507812 173.457031 579.964844 172.796875 579.355469 172.1875 C 578.746094 171.578125 578.085938 171.039062 577.367188 170.5625 C 576.652344 170.089844 575.894531 169.6875 575.097656 169.367188 C 574.300781 169.042969 573.476562 168.800781 572.632812 168.644531 C 571.789062 168.484375 570.933594 168.414062 570.074219 168.425781 Z M 570.074219 168.425781 " fill-opacity="1" fill-rule="nonzero"/></g></svg>