<svg xmlns="http://www.w3.org/2000/svg" xmlns:xlink="http://www.w3.org/1999/xlink" width="1080" zoomAndPan="magnify" viewBox="0 0 810 809.999993" height="1080" preserveAspectRatio="xMidYMid meet" version="1.0"><defs><clipPath id="b60fc25f53"><path d="M 131.960938 131.960938 L 678.039062 131.960938 L 678.039062 678.039062 L 131.960938 678.039062 Z M 131.960938 131.960938 " clip-rule="nonzero"/></clipPath><clipPath id="1d07d0c7fb"><path d="M 405 131.960938 C 254.203125 131.960938 131.960938 254.203125 131.960938 405 C 131.960938 555.796875 254.203125 678.039062 405 678.039062 C 555.796875 678.039062 678.039062 555.796875 678.039062 405 C 678.039062 254.203125 555.796875 131.960938 405 131.960938 Z M 405 131.960938 " clip-rule="nonzero"/></clipPath><clipPath id="7d7f3abb4f"><path d="M 312 299 L 606.847656 299 L 606.847656 512 L 312 512 Z M 312 299 " clip-rule="nonzero"/></clipPath><clipPath id="d0a91e6902"><path d="M 188.339844 193.386719 L 590.363281 193.386719 L 590.363281 614.203125 L 188.339844 614.203125 Z M 188.339844 193.386719 " clip-rule="nonzero"/></clipPath></defs><g clip-path="url(#b60fc25f53)"><g clip-path="url(#1d07d0c7fb)"><path fill="#ffffff" d="M 131.960938 131.960938 L 678.039062 131.960938 L 678.039062 678.039062 L 131.960938 678.039062 Z M 131.960938 131.960938 " fill-opacity="1" fill-rule="nonzero"/></g></g><g clip-path="url(#7d7f3abb4f)"><path fill="#ff402c" d="M 384.941406 426.359375 L 433.644531 474.855469 C 447.128906 487.617188 437.097656 511.609375 418.613281 511.191406 C 413.023438 511.214844 407.496094 508.910156 403.574219 504.929688 L 318.867188 420.214844 C 316.9375 418.207031 315.425781 415.828125 314.417969 413.230469 C 312.300781 408.070312 312.300781 402.292969 314.417969 397.132812 C 315.425781 394.535156 316.9375 392.160156 318.867188 390.144531 L 403.574219 305.4375 C 407.507812 301.476562 413.027344 299.191406 418.613281 299.207031 C 437.121094 298.769531 447.042969 322.730469 433.644531 335.507812 C 433.644531 335.507812 384.941406 384.007812 384.941406 384.007812 L 588.03125 384.007812 C 599.40625 383.78125 609.433594 393.804688 609.207031 405.183594 C 609.429688 416.558594 599.410156 426.582031 588.03125 426.359375 L 384.941406 426.359375 " fill-opacity="1" fill-rule="nonzero"/></g><g clip-path="url(#d0a91e6902)"><path fill="#ff402c" d="M 397.433594 193.40625 C 476.695312 192.351562 553.390625 239.636719 588.03125 310.941406 C 590.558594 315.996094 590.972656 321.847656 589.1875 327.210938 C 583.679688 344.984375 557.851562 346.769531 549.914062 330 C 509.613281 245.847656 401.59375 210.71875 319.511719 255.089844 C 236.289062 297.265625 203.585938 406.042969 249.792969 487.113281 C 313.921875 605.582031 490.773438 602.488281 549.0625 480.359375 C 553.976562 470.019531 567.523438 465.519531 577.65625 470.832031 C 587.984375 475.742188 592.515625 489.289062 587.183594 499.421875 C 486.0625 696.042969 194.175781 630.644531 185.816406 410.199219 C 181.734375 293.273438 280.433594 192.140625 397.433594 193.40625 " fill-opacity="1" fill-rule="nonzero"/></g></svg>