<svg xmlns="http://www.w3.org/2000/svg" xmlns:xlink="http://www.w3.org/1999/xlink" width="1080" zoomAndPan="magnify" viewBox="0 0 810 809.999993" height="1080" preserveAspectRatio="xMidYMid meet" version="1.0"><path fill="#ffffff" d="M 497.503906 554.847656 L 656.21875 713.507812 C 671.929688 729.21875 697.449219 729.210938 713.164062 713.5 C 728.875 697.777344 728.871094 672.261719 713.15625 656.546875 L 554.546875 497.996094 C 586.453125 454.597656 605.316406 401.003906 605.316406 343.035156 C 605.316406 198.414062 487.902344 81 343.277344 81 C 198.65625 81 81.242188 198.414062 81.242188 343.035156 C 81.242188 487.660156 198.65625 605.074219 343.277344 605.074219 C 400.910156 605.074219 454.222656 586.429688 497.503906 554.847656 Z M 343.277344 161.539062 C 443.449219 161.539062 524.78125 242.863281 524.78125 343.035156 C 524.78125 443.207031 443.449219 524.539062 343.277344 524.539062 C 243.105469 524.539062 161.78125 443.207031 161.78125 343.035156 C 161.78125 242.863281 243.105469 161.539062 343.277344 161.539062 Z M 343.277344 161.539062 " fill-opacity="1" fill-rule="evenodd"/></svg>