<svg xmlns="http://www.w3.org/2000/svg" xmlns:xlink="http://www.w3.org/1999/xlink" width="1080" zoomAndPan="magnify" viewBox="0 0 810 809.999993" height="1080" preserveAspectRatio="xMidYMid meet" version="1.0"><defs><clipPath id="4e275e6cb6"><path d="M 104 102.996094 L 706 102.996094 L 706 703 L 104 703 Z M 104 102.996094 " clip-rule="nonzero"/></clipPath></defs><g clip-path="url(#4e275e6cb6)"><path fill="#ffffff" d="M 404.269531 102.3125 C 402.632812 102.335938 401.003906 102.441406 399.382812 102.625 C 397.757812 102.808594 396.148438 103.070312 394.550781 103.414062 C 392.953125 103.753906 391.375 104.175781 389.816406 104.671875 C 388.261719 105.167969 386.730469 105.742188 385.230469 106.386719 C 383.730469 107.035156 382.265625 107.753906 380.835938 108.542969 C 379.40625 109.335938 378.019531 110.195312 376.671875 111.121094 C 375.328125 112.046875 374.03125 113.039062 372.78125 114.09375 C 371.535156 115.148438 370.339844 116.261719 369.203125 117.433594 C 368.0625 118.605469 366.984375 119.828125 365.964844 121.105469 C 364.945312 122.382812 363.992188 123.707031 363.105469 125.082031 C 362.214844 126.453125 361.394531 127.863281 360.644531 129.316406 C 359.894531 130.765625 359.21875 132.25 358.613281 133.769531 C 358.011719 135.289062 357.480469 136.832031 357.03125 138.402344 C 356.578125 139.972656 356.203125 141.558594 355.90625 143.167969 C 355.609375 144.773438 355.390625 146.390625 355.253906 148.019531 C 355.117188 149.648438 355.058594 151.277344 355.082031 152.914062 L 355.082031 352.585938 L 155.410156 352.585938 C 153.757812 352.5625 152.113281 352.621094 150.46875 352.761719 C 148.824219 352.898438 147.191406 353.121094 145.570312 353.421875 C 143.949219 353.722656 142.34375 354.105469 140.761719 354.566406 C 139.175781 355.027344 137.621094 355.566406 136.089844 356.179688 C 134.558594 356.796875 133.0625 357.484375 131.597656 358.25 C 130.136719 359.011719 128.714844 359.847656 127.335938 360.75 C 125.957031 361.65625 124.625 362.625 123.339844 363.660156 C 122.058594 364.699219 120.828125 365.796875 119.652344 366.953125 C 118.476562 368.113281 117.363281 369.324219 116.308594 370.59375 C 115.253906 371.863281 114.265625 373.179688 113.339844 374.546875 C 112.417969 375.914062 111.5625 377.324219 110.78125 378.773438 C 109.996094 380.226562 109.285156 381.714844 108.648438 383.234375 C 108.011719 384.757812 107.453125 386.308594 106.96875 387.882812 C 106.484375 389.460938 106.082031 391.058594 105.757812 392.675781 C 105.433594 394.292969 105.1875 395.925781 105.023438 397.566406 C 104.863281 399.207031 104.78125 400.851562 104.78125 402.503906 C 104.78125 404.152344 104.863281 405.796875 105.023438 407.441406 C 105.1875 409.082031 105.433594 410.710938 105.757812 412.328125 C 106.082031 413.945312 106.484375 415.542969 106.96875 417.121094 C 107.453125 418.699219 108.011719 420.25 108.648438 421.769531 C 109.285156 423.292969 109.996094 424.777344 110.78125 426.230469 C 111.5625 427.683594 112.417969 429.089844 113.339844 430.457031 C 114.265625 431.824219 115.253906 433.144531 116.308594 434.410156 C 117.363281 435.679688 118.476562 436.894531 119.652344 438.050781 C 120.828125 439.210938 122.058594 440.308594 123.339844 441.34375 C 124.625 442.382812 125.957031 443.351562 127.335938 444.257812 C 128.714844 445.160156 130.136719 445.996094 131.597656 446.757812 C 133.0625 447.519531 134.558594 448.210938 136.089844 448.824219 C 137.621094 449.441406 139.175781 449.980469 140.761719 450.441406 C 142.34375 450.898438 143.949219 451.28125 145.570312 451.582031 C 147.191406 451.886719 148.824219 452.105469 150.46875 452.246094 C 152.113281 452.386719 153.757812 452.445312 155.410156 452.421875 L 355.082031 452.421875 L 355.082031 652.09375 C 355.058594 653.742188 355.117188 655.390625 355.253906 657.03125 C 355.394531 658.675781 355.617188 660.308594 355.917969 661.933594 C 356.21875 663.554688 356.601562 665.15625 357.0625 666.742188 C 357.523438 668.324219 358.0625 669.882812 358.675781 671.414062 C 359.292969 672.945312 359.980469 674.441406 360.746094 675.902344 C 361.507812 677.367188 362.339844 678.785156 363.246094 680.167969 C 364.152344 681.546875 365.121094 682.878906 366.15625 684.160156 C 367.195312 685.445312 368.292969 686.675781 369.449219 687.847656 C 370.609375 689.023438 371.820312 690.136719 373.089844 691.191406 C 374.359375 692.246094 375.675781 693.238281 377.042969 694.160156 C 378.410156 695.085938 379.820312 695.9375 381.269531 696.722656 C 382.722656 697.507812 384.210938 698.21875 385.730469 698.855469 C 387.253906 699.492188 388.804688 700.050781 390.378906 700.535156 C 391.957031 701.015625 393.554688 701.421875 395.171875 701.746094 C 396.789062 702.070312 398.421875 702.3125 400.0625 702.476562 C 401.703125 702.640625 403.347656 702.722656 405 702.722656 C 406.648438 702.722656 408.292969 702.640625 409.9375 702.476562 C 411.578125 702.3125 413.207031 702.070312 414.824219 701.746094 C 416.441406 701.421875 418.039062 701.015625 419.617188 700.535156 C 421.195312 700.050781 422.746094 699.492188 424.265625 698.855469 C 425.789062 698.21875 427.273438 697.507812 428.726562 696.722656 C 430.179688 695.9375 431.585938 695.085938 432.953125 694.160156 C 434.320312 693.238281 435.640625 692.246094 436.90625 691.191406 C 438.175781 690.136719 439.390625 689.023438 440.546875 687.847656 C 441.707031 686.675781 442.804688 685.445312 443.839844 684.160156 C 444.875 682.878906 445.847656 681.546875 446.75 680.167969 C 447.65625 678.785156 448.488281 677.367188 449.253906 675.902344 C 450.015625 674.441406 450.707031 672.945312 451.320312 671.414062 C 451.9375 669.882812 452.476562 668.324219 452.933594 666.742188 C 453.394531 665.15625 453.777344 663.554688 454.078125 661.933594 C 454.382812 660.308594 454.601562 658.675781 454.742188 657.03125 C 454.882812 655.390625 454.941406 653.742188 454.917969 652.09375 L 454.917969 452.421875 L 654.589844 452.421875 C 656.238281 452.445312 657.886719 452.386719 659.527344 452.246094 C 661.171875 452.105469 662.804688 451.886719 664.425781 451.582031 C 666.050781 451.28125 667.652344 450.898438 669.238281 450.441406 C 670.820312 449.980469 672.378906 449.441406 673.910156 448.824219 C 675.441406 448.210938 676.9375 447.519531 678.398438 446.757812 C 679.863281 445.996094 681.28125 445.160156 682.664062 444.253906 C 684.042969 443.351562 685.375 442.382812 686.65625 441.34375 C 687.941406 440.308594 689.171875 439.210938 690.34375 438.050781 C 691.519531 436.894531 692.632812 435.679688 693.6875 434.410156 C 694.742188 433.144531 695.734375 431.824219 696.65625 430.457031 C 697.582031 429.089844 698.433594 427.683594 699.21875 426.230469 C 700.003906 424.777344 700.710938 423.292969 701.347656 421.769531 C 701.984375 420.25 702.546875 418.699219 703.027344 417.121094 C 703.511719 415.542969 703.917969 413.945312 704.242188 412.328125 C 704.566406 410.710938 704.808594 409.082031 704.972656 407.441406 C 705.136719 405.796875 705.21875 404.152344 705.21875 402.503906 C 705.21875 400.851562 705.136719 399.207031 704.972656 397.566406 C 704.808594 395.925781 704.566406 394.292969 704.242188 392.675781 C 703.917969 391.058594 703.511719 389.460938 703.027344 387.882812 C 702.546875 386.308594 701.984375 384.757812 701.347656 383.234375 C 700.710938 381.714844 700.003906 380.226562 699.21875 378.773438 C 698.433594 377.324219 697.582031 375.914062 696.65625 374.546875 C 695.734375 373.179688 694.742188 371.863281 693.6875 370.59375 C 692.632812 369.324219 691.519531 368.113281 690.34375 366.953125 C 689.171875 365.796875 687.941406 364.699219 686.65625 363.660156 C 685.375 362.625 684.042969 361.65625 682.664062 360.75 C 681.28125 359.847656 679.863281 359.011719 678.398438 358.25 C 676.9375 357.484375 675.441406 356.796875 673.910156 356.179688 C 672.378906 355.566406 670.820312 355.027344 669.238281 354.566406 C 667.652344 354.105469 666.050781 353.722656 664.425781 353.421875 C 662.804688 353.121094 661.171875 352.898438 659.527344 352.761719 C 657.886719 352.621094 656.238281 352.5625 654.589844 352.585938 L 454.917969 352.585938 L 454.917969 152.914062 C 454.941406 151.25 454.878906 149.585938 454.734375 147.929688 C 454.59375 146.269531 454.367188 144.625 454.058594 142.988281 C 453.75 141.351562 453.359375 139.734375 452.890625 138.136719 C 452.421875 136.542969 451.875 134.972656 451.246094 133.429688 C 450.621094 131.886719 449.917969 130.382812 449.140625 128.910156 C 448.363281 127.4375 447.511719 126.007812 446.59375 124.621094 C 445.671875 123.234375 444.683594 121.898438 443.628906 120.609375 C 442.574219 119.320312 441.460938 118.089844 440.28125 116.914062 C 439.105469 115.734375 437.871094 114.621094 436.582031 113.566406 C 435.292969 112.515625 433.953125 111.527344 432.566406 110.609375 C 431.179688 109.691406 429.75 108.84375 428.277344 108.066406 C 426.804688 107.289062 425.296875 106.589844 423.753906 105.964844 C 422.210938 105.339844 420.640625 104.792969 419.042969 104.324219 C 417.445312 103.855469 415.828125 103.46875 414.195312 103.160156 C 412.558594 102.855469 410.910156 102.628906 409.253906 102.488281 C 407.59375 102.347656 405.933594 102.289062 404.269531 102.3125 Z M 404.269531 102.3125 " fill-opacity="1" fill-rule="nonzero"/></g></svg>