<svg xmlns="http://www.w3.org/2000/svg" xmlns:xlink="http://www.w3.org/1999/xlink" width="1080" zoomAndPan="magnify" viewBox="0 0 810 809.999993" height="1080" preserveAspectRatio="xMidYMid meet" version="1.0"><path fill="#ffffff" d="M 564.347656 564.824219 L 440.660156 507.59375 C 419.101562 497.640625 400.414062 518.769531 387.710938 533.625 C 387.511719 533.90625 387.285156 534.167969 387.039062 534.40625 C 386.789062 534.648438 386.519531 534.859375 386.230469 535.050781 C 385.941406 535.238281 385.636719 535.398438 385.320312 535.53125 C 385 535.664062 384.671875 535.765625 384.332031 535.835938 C 383.996094 535.90625 383.652344 535.945312 383.308594 535.953125 C 382.960938 535.957031 382.621094 535.933594 382.277344 535.875 C 381.9375 535.820312 381.605469 535.730469 381.28125 535.609375 C 380.957031 535.492188 380.648438 535.34375 380.351562 535.164062 C 375.976562 531.929688 371.691406 528.582031 367.492188 525.121094 C 363.296875 521.65625 359.195312 518.085938 355.1875 514.402344 C 351.179688 510.722656 347.273438 506.9375 343.46875 503.050781 C 339.664062 499.160156 335.960938 495.171875 332.371094 491.085938 C 328.777344 487 325.292969 482.824219 321.921875 478.550781 C 318.550781 474.28125 315.296875 469.925781 312.15625 465.480469 C 309.015625 461.035156 305.996094 456.511719 303.097656 451.90625 C 300.199219 447.300781 297.425781 442.625 294.777344 437.871094 C 292.125 433.121094 289.605469 428.300781 287.210938 423.414062 C 284.816406 418.527344 282.554688 413.582031 280.425781 408.574219 C 278.292969 403.566406 276.300781 398.507812 274.4375 393.394531 C 272.578125 388.28125 270.851562 383.121094 269.265625 377.917969 C 267.679688 372.710938 266.234375 367.46875 264.925781 362.1875 C 263.617188 356.90625 262.449219 351.59375 261.425781 346.25 C 260.402344 340.90625 259.519531 335.539062 258.777344 330.148438 C 258.039062 324.757812 257.445312 319.351562 256.992188 313.929688 C 256.988281 313.582031 257.019531 313.242188 257.082031 312.902344 C 257.148438 312.5625 257.242188 312.234375 257.371094 311.914062 C 257.496094 311.59375 257.65625 311.289062 257.839844 310.996094 C 258.027344 310.707031 258.242188 310.4375 258.480469 310.1875 C 258.71875 309.941406 258.980469 309.714844 259.261719 309.515625 C 259.542969 309.320312 259.84375 309.148438 260.15625 309.007812 C 260.472656 308.867188 260.796875 308.757812 261.132812 308.679688 C 261.46875 308.601562 261.808594 308.558594 262.15625 308.546875 C 281.421875 305.414062 309.210938 300.773438 312.136719 277.128906 L 328.394531 141.796875 C 330.667969 115.378906 300.433594 104.597656 279.839844 97.195312 C 278.140625 96.71875 276.429688 96.28125 274.707031 95.882812 C 272.984375 95.488281 271.253906 95.136719 269.515625 94.824219 C 267.777344 94.515625 266.03125 94.246094 264.277344 94.023438 C 262.523438 93.796875 260.769531 93.613281 259.007812 93.476562 C 257.246094 93.335938 255.480469 93.242188 253.714844 93.1875 C 251.949219 93.136719 250.183594 93.125 248.414062 93.160156 C 246.648438 93.191406 244.882812 93.269531 243.121094 93.390625 C 241.359375 93.507812 239.601562 93.671875 237.84375 93.878906 C 236.089844 94.085938 234.339844 94.332031 232.597656 94.625 C 230.855469 94.917969 229.121094 95.25 227.394531 95.628906 C 225.667969 96.003906 223.953125 96.421875 222.246094 96.882812 C 220.542969 97.34375 218.847656 97.847656 217.167969 98.390625 C 215.484375 98.933594 213.816406 99.515625 212.164062 100.140625 C 210.511719 100.765625 208.875 101.433594 207.257812 102.136719 C 205.636719 102.84375 204.035156 103.585938 202.449219 104.371094 C 200.867188 105.152344 199.304688 105.976562 197.761719 106.835938 C 196.214844 107.695312 194.695312 108.59375 193.195312 109.527344 C 191.695312 110.460938 190.21875 111.433594 188.769531 112.4375 C 187.316406 113.445312 185.890625 114.488281 184.488281 115.5625 C 183.085938 116.640625 181.714844 117.75 180.367188 118.894531 C 179.019531 120.039062 177.703125 121.214844 176.414062 122.421875 C 175.125 123.632812 173.863281 124.871094 172.636719 126.140625 C 171.40625 127.410156 170.210938 128.710938 169.046875 130.039062 C 167.878906 131.367188 166.75 132.722656 165.652344 134.105469 C 164.550781 135.492188 163.488281 136.898438 162.457031 138.335938 C 161.429688 139.773438 160.433594 141.230469 159.476562 142.71875 C 158.519531 144.203125 157.597656 145.707031 156.714844 147.238281 C 155.828125 148.769531 154.980469 150.316406 154.171875 151.890625 C 153.363281 153.460938 152.59375 155.050781 151.863281 156.660156 C 151.132812 158.269531 150.445312 159.894531 149.792969 161.535156 C 149.140625 163.179688 148.53125 164.835938 147.960938 166.507812 C 147.390625 168.179688 146.863281 169.867188 146.375 171.566406 C 144.449219 178.351562 142.6875 185.183594 141.097656 192.058594 C 139.507812 198.929688 138.085938 205.839844 136.832031 212.78125 C 135.582031 219.726562 134.5 226.695312 133.589844 233.691406 C 132.679688 240.691406 131.941406 247.703125 131.378906 254.738281 C 130.8125 261.769531 130.417969 268.8125 130.199219 275.863281 C 129.980469 282.917969 129.933594 289.96875 130.058594 297.023438 C 130.183594 304.078125 130.484375 311.125 130.957031 318.164062 C 131.429688 325.207031 132.074219 332.230469 132.890625 339.238281 C 133.707031 346.246094 134.695312 353.230469 135.855469 360.1875 C 137.015625 367.148438 138.34375 374.074219 139.84375 380.96875 C 141.34375 387.863281 143.011719 394.71875 144.847656 401.53125 C 146.683594 408.34375 148.683594 415.105469 150.851562 421.820312 C 153.019531 428.535156 155.351562 435.191406 157.847656 441.789062 C 160.34375 448.390625 162.996094 454.925781 165.8125 461.394531 C 168.628906 467.863281 171.601562 474.261719 174.730469 480.582031 C 177.859375 486.90625 181.140625 493.148438 184.578125 499.3125 C 188.015625 505.476562 191.597656 511.550781 195.332031 517.535156 C 199.066406 523.523438 202.945312 529.414062 206.96875 535.210938 C 210.992188 541.007812 215.15625 546.699219 219.457031 552.292969 C 223.761719 557.882812 228.195312 563.367188 232.769531 568.742188 C 237.339844 574.113281 242.042969 579.371094 246.871094 584.515625 C 251.699219 589.660156 256.652344 594.679688 261.730469 599.582031 C 266.808594 604.480469 272 609.253906 277.3125 613.898438 C 282.621094 618.542969 288.042969 623.058594 293.574219 627.4375 C 299.105469 631.816406 304.742188 636.054688 310.484375 640.160156 C 316.222656 644.261719 322.058594 648.21875 327.996094 652.035156 C 333.929688 655.851562 339.953125 659.519531 346.070312 663.039062 C 352.183594 666.5625 358.378906 669.929688 364.660156 673.144531 C 370.941406 676.363281 377.296875 679.421875 383.726562 682.324219 C 390.15625 685.230469 396.652344 687.976562 403.21875 690.558594 C 409.78125 693.144531 416.40625 695.570312 423.089844 697.828125 C 429.773438 700.089844 436.507812 702.183594 443.296875 704.113281 C 444.996094 704.589844 446.710938 705.023438 448.433594 705.414062 C 450.15625 705.804688 451.886719 706.15625 453.625 706.464844 C 455.367188 706.769531 457.113281 707.035156 458.867188 707.257812 C 460.617188 707.480469 462.375 707.660156 464.136719 707.792969 C 465.898438 707.929688 467.664062 708.023438 469.429688 708.074219 C 471.195312 708.125 472.960938 708.128906 474.726562 708.09375 C 476.496094 708.058594 478.257812 707.976562 480.019531 707.855469 C 481.785156 707.734375 483.542969 707.566406 485.296875 707.359375 C 487.050781 707.152344 488.800781 706.898438 490.542969 706.605469 C 492.285156 706.3125 494.019531 705.976562 495.746094 705.597656 C 497.46875 705.21875 499.183594 704.796875 500.890625 704.335938 C 502.597656 703.875 504.289062 703.371094 505.96875 702.824219 C 507.648438 702.28125 509.316406 701.695312 510.96875 701.066406 C 512.621094 700.441406 514.257812 699.773438 515.875 699.070312 C 517.496094 698.363281 519.097656 697.617188 520.679688 696.832031 C 522.261719 696.046875 523.824219 695.222656 525.367188 694.363281 C 526.910156 693.503906 528.433594 692.605469 529.929688 691.667969 C 531.429688 690.734375 532.90625 689.761719 534.359375 688.753906 C 535.808594 687.746094 537.234375 686.707031 538.636719 685.628906 C 540.035156 684.550781 541.410156 683.441406 542.757812 682.296875 C 544.101562 681.152344 545.421875 679.976562 546.710938 678.769531 C 547.996094 677.558594 549.257812 676.320312 550.484375 675.050781 C 551.714844 673.78125 552.910156 672.480469 554.074219 671.152344 C 555.238281 669.824219 556.371094 668.46875 557.46875 667.085938 C 558.570312 665.699219 559.632812 664.292969 560.664062 662.855469 C 561.691406 661.417969 562.6875 659.960938 563.644531 658.476562 C 564.605469 656.992188 565.523438 655.484375 566.410156 653.957031 C 567.296875 652.425781 568.140625 650.875 568.953125 649.304688 C 569.761719 647.734375 570.53125 646.144531 571.261719 644.535156 C 571.992188 642.929688 572.683594 641.304688 573.335938 639.660156 C 573.988281 638.019531 574.601562 636.363281 575.171875 634.691406 C 575.742188 633.019531 576.273438 631.332031 576.761719 629.636719 C 581.457031 608.105469 587.953125 576.734375 564.347656 564.824219 Z M 564.347656 564.824219 " fill-opacity="1" fill-rule="nonzero"/><path fill="#ffffff" d="M 446.621094 241.738281 C 451.296875 242.636719 455.914062 243.773438 460.46875 245.148438 C 465.027344 246.523438 469.5 248.132812 473.890625 249.976562 C 478.28125 251.816406 482.5625 253.882812 486.738281 256.167969 C 490.914062 258.453125 494.957031 260.949219 498.875 263.65625 C 502.789062 266.363281 506.554688 269.265625 510.171875 272.363281 C 513.785156 275.460938 517.226562 278.738281 520.503906 282.195312 C 523.777344 285.652344 526.863281 289.265625 529.757812 293.042969 C 532.65625 296.820312 535.351562 300.738281 537.84375 304.792969 C 540.203125 308.929688 542.339844 313.175781 544.257812 317.53125 C 546.175781 321.886719 547.863281 326.332031 549.316406 330.863281 C 550.773438 335.398438 551.992188 339.992188 552.96875 344.652344 C 553.945312 349.308594 554.679688 354.003906 555.171875 358.742188 C 555.660156 363.476562 555.90625 368.222656 555.902344 372.984375 C 555.898438 377.742188 555.648438 382.492188 555.152344 387.226562 C 554.65625 391.957031 553.914062 396.65625 552.933594 401.3125 C 551.949219 405.96875 550.722656 410.5625 549.261719 415.09375 C 549.046875 415.773438 548.898438 416.464844 548.816406 417.171875 C 548.734375 417.882812 548.722656 418.589844 548.777344 419.300781 C 548.835938 420.011719 548.960938 420.707031 549.152344 421.394531 C 549.34375 422.082031 549.601562 422.742188 549.921875 423.378906 C 550.242188 424.015625 550.621094 424.613281 551.058594 425.175781 C 551.496094 425.738281 551.984375 426.253906 552.519531 426.722656 C 553.058594 427.1875 553.636719 427.601562 554.253906 427.953125 C 554.871094 428.308594 555.515625 428.601562 556.191406 428.832031 C 556.867188 429.0625 557.554688 429.222656 558.261719 429.320312 C 558.96875 429.414062 559.675781 429.441406 560.386719 429.398438 C 561.097656 429.355469 561.800781 429.246094 562.488281 429.066406 C 563.179688 428.886719 563.84375 428.644531 564.488281 428.335938 C 565.128906 428.027344 565.738281 427.660156 566.308594 427.234375 C 566.878906 426.808594 567.402344 426.328125 567.878906 425.800781 C 568.359375 425.273438 568.78125 424.703125 569.148438 424.09375 C 569.515625 423.484375 569.820312 422.84375 570.0625 422.171875 C 570.941406 419.542969 571.746094 416.886719 572.480469 414.214844 C 573.214844 411.539062 573.875 408.847656 574.464844 406.136719 C 575.058594 403.425781 575.574219 400.703125 576.019531 397.964844 C 576.464844 395.230469 576.835938 392.480469 577.132812 389.722656 C 577.429688 386.964844 577.652344 384.203125 577.800781 381.433594 C 577.953125 378.664062 578.027344 375.894531 578.027344 373.121094 C 578.03125 370.347656 577.957031 367.574219 577.808594 364.804688 C 577.664062 362.035156 577.441406 359.273438 577.148438 356.515625 C 576.851562 353.757812 576.484375 351.007812 576.042969 348.269531 C 575.597656 345.53125 575.085938 342.808594 574.496094 340.097656 C 573.910156 337.386719 573.25 334.695312 572.515625 332.019531 C 571.785156 329.34375 570.980469 326.691406 570.109375 324.058594 C 569.234375 321.425781 568.289062 318.820312 567.277344 316.238281 C 566.261719 313.65625 565.179688 311.105469 564.03125 308.578125 C 562.882812 306.054688 561.664062 303.566406 560.382812 301.105469 C 559.097656 298.648438 557.75 296.226562 556.335938 293.839844 C 554.921875 291.453125 553.445312 289.105469 551.910156 286.796875 C 550.371094 284.492188 548.769531 282.226562 547.109375 280.003906 C 545.449219 277.78125 543.730469 275.605469 541.957031 273.476562 C 540.179688 271.347656 538.347656 269.265625 536.460938 267.234375 C 534.570312 265.203125 532.632812 263.222656 530.636719 261.292969 C 528.644531 259.367188 526.601562 257.492188 524.507812 255.675781 C 522.410156 253.855469 520.269531 252.09375 518.082031 250.390625 C 515.894531 248.6875 513.660156 247.042969 511.386719 245.457031 C 509.109375 243.875 506.792969 242.351562 504.433594 240.890625 C 502.078125 239.429688 499.683594 238.035156 497.25 236.703125 C 494.816406 235.367188 492.351562 234.101562 489.851562 232.902344 C 487.351562 231.703125 484.820312 230.570312 482.257812 229.503906 C 479.699219 228.441406 477.109375 227.445312 474.496094 226.519531 C 471.882812 225.589844 469.246094 224.734375 466.585938 223.949219 C 463.925781 223.164062 461.246094 222.453125 458.546875 221.808594 C 455.851562 221.167969 453.136719 220.597656 450.40625 220.101562 C 449.703125 219.992188 448.996094 219.953125 448.285156 219.984375 C 447.574219 220.011719 446.871094 220.109375 446.179688 220.273438 C 445.488281 220.441406 444.816406 220.671875 444.171875 220.96875 C 443.523438 221.261719 442.910156 221.617188 442.332031 222.03125 C 441.753906 222.449219 441.21875 222.914062 440.730469 223.433594 C 440.246094 223.953125 439.8125 224.511719 439.433594 225.117188 C 439.054688 225.71875 438.738281 226.351562 438.480469 227.015625 C 438.226562 227.679688 438.035156 228.363281 437.914062 229.066406 C 437.792969 229.765625 437.738281 230.472656 437.753906 231.183594 C 437.765625 231.894531 437.851562 232.601562 438 233.296875 C 438.152344 233.992188 438.371094 234.664062 438.652344 235.320312 C 438.933594 235.972656 439.277344 236.59375 439.679688 237.179688 C 440.085938 237.765625 440.539062 238.308594 441.050781 238.804688 C 441.558594 239.304688 442.109375 239.75 442.703125 240.140625 C 443.300781 240.53125 443.925781 240.859375 444.585938 241.128906 C 445.246094 241.398438 445.925781 241.601562 446.621094 241.738281 Z M 446.621094 241.738281 " fill-opacity="1" fill-rule="nonzero"/><path fill="#ffffff" d="M 392.71875 315.660156 C 394.21875 315.921875 395.710938 316.226562 397.191406 316.570312 C 398.675781 316.914062 400.148438 317.296875 401.613281 317.71875 C 403.078125 318.140625 404.527344 318.601562 405.964844 319.105469 C 407.402344 319.605469 408.828125 320.144531 410.234375 320.722656 C 411.644531 321.300781 413.039062 321.914062 414.414062 322.566406 C 415.789062 323.222656 417.148438 323.910156 418.484375 324.636719 C 419.824219 325.363281 421.144531 326.125 422.441406 326.921875 C 423.738281 327.71875 425.011719 328.550781 426.265625 329.414062 C 427.519531 330.28125 428.746094 331.179688 429.953125 332.113281 C 431.15625 333.046875 432.335938 334.007812 433.488281 335.003906 C 434.640625 336 435.765625 337.027344 436.859375 338.082031 C 437.957031 339.140625 439.027344 340.226562 440.0625 341.339844 C 441.101562 342.453125 442.109375 343.59375 443.085938 344.761719 C 444.0625 345.929688 445.007812 347.125 445.921875 348.34375 C 446.832031 349.5625 447.710938 350.804688 448.558594 352.074219 C 449.402344 353.339844 450.214844 354.628906 450.988281 355.9375 C 451.765625 357.25 452.507812 358.578125 453.210938 359.929688 C 453.914062 361.28125 454.582031 362.648438 455.210938 364.035156 C 455.84375 365.421875 456.433594 366.824219 456.988281 368.242188 C 457.542969 369.660156 458.0625 371.09375 458.539062 372.539062 C 459.015625 373.984375 459.453125 375.441406 459.851562 376.914062 C 460.25 378.382812 460.609375 379.863281 460.929688 381.351562 C 461.25 382.839844 461.527344 384.335938 461.765625 385.839844 C 462.003906 387.34375 462.203125 388.855469 462.359375 390.371094 C 462.515625 391.886719 462.632812 393.402344 462.707031 394.925781 C 462.78125 396.445312 462.816406 397.96875 462.808594 399.488281 C 462.800781 401.011719 462.753906 402.535156 462.664062 404.054688 C 462.574219 405.574219 462.445312 407.09375 462.273438 408.605469 C 462.101562 410.117188 461.890625 411.625 461.640625 413.128906 C 461.386719 414.628906 461.09375 416.125 460.761719 417.609375 C 460.429688 419.097656 460.054688 420.574219 459.644531 422.039062 C 459.230469 423.503906 458.78125 424.957031 458.289062 426.398438 C 458.054688 427.082031 457.890625 427.78125 457.796875 428.496094 C 457.703125 429.210938 457.675781 429.929688 457.722656 430.648438 C 457.769531 431.367188 457.886719 432.074219 458.070312 432.773438 C 458.257812 433.46875 458.507812 434.140625 458.828125 434.789062 C 459.144531 435.4375 459.523438 436.046875 459.960938 436.617188 C 460.398438 437.191406 460.886719 437.714844 461.429688 438.191406 C 461.972656 438.667969 462.554688 439.085938 463.179688 439.449219 C 463.800781 439.8125 464.457031 440.109375 465.136719 440.339844 C 465.820312 440.574219 466.519531 440.738281 467.234375 440.832031 C 467.949219 440.925781 468.667969 440.953125 469.386719 440.90625 C 470.105469 440.859375 470.8125 440.746094 471.511719 440.558594 C 472.207031 440.371094 472.878906 440.121094 473.527344 439.804688 C 474.175781 439.484375 474.785156 439.105469 475.355469 438.667969 C 475.929688 438.230469 476.453125 437.742188 476.929688 437.199219 C 477.40625 436.65625 477.824219 436.074219 478.1875 435.449219 C 478.546875 434.828125 478.84375 434.171875 479.078125 433.492188 C 480.257812 429.847656 481.242188 426.152344 482.035156 422.402344 C 482.828125 418.65625 483.425781 414.878906 483.824219 411.070312 C 484.222656 407.261719 484.425781 403.441406 484.429688 399.609375 C 484.433594 395.78125 484.234375 391.960938 483.839844 388.152344 C 483.445312 384.339844 482.855469 380.5625 482.070312 376.8125 C 481.28125 373.066406 480.300781 369.367188 479.128906 365.722656 C 477.957031 362.074219 476.597656 358.5 475.054688 354.996094 C 473.511719 351.488281 471.789062 348.074219 469.890625 344.75 C 467.910156 341.464844 465.761719 338.296875 463.441406 335.242188 C 461.125 332.1875 458.65625 329.265625 456.027344 326.472656 C 453.402344 323.679688 450.636719 321.03125 447.730469 318.53125 C 444.824219 316.03125 441.792969 313.691406 438.640625 311.511719 C 435.488281 309.332031 432.226562 307.324219 428.859375 305.488281 C 425.496094 303.652344 422.042969 302 418.5 300.53125 C 414.960938 299.0625 411.351562 297.785156 407.675781 296.695312 C 403.996094 295.609375 400.273438 294.71875 396.503906 294.023438 C 395.800781 293.917969 395.09375 293.878906 394.382812 293.90625 C 393.671875 293.9375 392.96875 294.035156 392.277344 294.199219 C 391.585938 294.367188 390.917969 294.597656 390.269531 294.894531 C 389.625 295.1875 389.011719 295.542969 388.433594 295.960938 C 387.855469 296.375 387.324219 296.839844 386.835938 297.359375 C 386.347656 297.878906 385.914062 298.4375 385.539062 299.042969 C 385.160156 299.644531 384.84375 300.277344 384.585938 300.941406 C 384.332031 301.605469 384.144531 302.289062 384.019531 302.988281 C 383.898438 303.6875 383.84375 304.394531 383.859375 305.105469 C 383.871094 305.816406 383.957031 306.519531 384.105469 307.214844 C 384.257812 307.910156 384.472656 308.585938 384.757812 309.238281 C 385.039062 309.890625 385.382812 310.511719 385.785156 311.097656 C 386.1875 311.683594 386.640625 312.226562 387.148438 312.726562 C 387.65625 313.222656 388.207031 313.667969 388.804688 314.058594 C 389.398438 314.449219 390.023438 314.78125 390.683594 315.050781 C 391.339844 315.320312 392.019531 315.523438 392.71875 315.660156 Z M 392.71875 315.660156 " fill-opacity="1" fill-rule="nonzero"/><path fill="#ffffff" d="M 636.816406 234.867188 C 632.980469 228.070312 628.890625 221.433594 624.542969 214.953125 C 620.195312 208.472656 615.605469 202.167969 610.769531 196.046875 C 605.933594 189.921875 600.867188 183.992188 595.574219 178.257812 C 590.28125 172.527344 584.773438 167.007812 579.050781 161.703125 C 573.328125 156.394531 567.410156 151.320312 561.296875 146.472656 C 555.179688 141.621094 548.886719 137.019531 542.417969 132.65625 C 535.945312 128.296875 529.316406 124.191406 522.527344 120.347656 C 515.738281 116.5 508.8125 112.917969 501.746094 109.609375 C 501.082031 109.347656 500.398438 109.15625 499.699219 109.027344 C 499 108.902344 498.292969 108.84375 497.578125 108.851562 C 496.867188 108.863281 496.164062 108.941406 495.464844 109.089844 C 494.769531 109.238281 494.09375 109.449219 493.4375 109.730469 C 492.78125 110.007812 492.160156 110.347656 491.570312 110.746094 C 490.980469 111.148438 490.433594 111.601562 489.933594 112.105469 C 489.433594 112.613281 488.984375 113.164062 488.589844 113.757812 C 488.195312 114.347656 487.863281 114.976562 487.589844 115.632812 C 487.316406 116.292969 487.109375 116.96875 486.96875 117.667969 C 486.828125 118.367188 486.757812 119.070312 486.753906 119.785156 C 486.75 120.496094 486.8125 121.203125 486.949219 121.902344 C 487.082031 122.601562 487.28125 123.28125 487.546875 123.941406 C 487.8125 124.601562 488.140625 125.230469 488.53125 125.828125 C 488.917969 126.425781 489.359375 126.980469 489.855469 127.492188 C 490.351562 128.003906 490.894531 128.460938 491.480469 128.867188 C 492.0625 129.273438 492.683594 129.617188 493.335938 129.90625 C 590.949219 169.976562 671.601562 307.332031 659.859375 411.148438 C 659.792969 411.859375 659.796875 412.570312 659.871094 413.28125 C 659.941406 413.992188 660.082031 414.6875 660.289062 415.371094 C 660.5 416.054688 660.773438 416.710938 661.109375 417.339844 C 661.445312 417.972656 661.839844 418.5625 662.289062 419.117188 C 662.742188 419.667969 663.242188 420.171875 663.792969 420.628906 C 664.34375 421.085938 664.933594 421.484375 665.5625 421.824219 C 666.191406 422.164062 666.84375 422.441406 667.527344 422.652344 C 668.207031 422.867188 668.90625 423.011719 669.613281 423.089844 C 670.324219 423.164062 671.035156 423.171875 671.75 423.109375 C 672.460938 423.050781 673.160156 422.917969 673.84375 422.722656 C 674.53125 422.523438 675.191406 422.261719 675.828125 421.933594 C 676.464844 421.605469 677.058594 421.222656 677.621094 420.777344 C 678.179688 420.335938 678.691406 419.839844 679.15625 419.296875 C 679.621094 418.753906 680.027344 418.171875 680.378906 417.550781 C 680.726562 416.925781 681.015625 416.277344 681.238281 415.597656 C 681.460938 414.917969 681.617188 414.222656 681.703125 413.515625 C 683.917969 393.128906 687.222656 319.996094 636.816406 234.867188 Z M 636.816406 234.867188 " fill-opacity="1" fill-rule="nonzero"/></svg>