<svg xmlns="http://www.w3.org/2000/svg" xmlns:xlink="http://www.w3.org/1999/xlink" width="1080" zoomAndPan="magnify" viewBox="0 0 810 809.999993" height="1080" preserveAspectRatio="xMidYMid meet" version="1.0"><path fill="#ffffff" d="M 404.023438 81.589844 C 224.511719 82.195312 81.039062 228.125 83.386719 407.585938 C 83.492188 416.601562 83.976562 425.597656 84.84375 434.574219 C 85.710938 443.550781 86.953125 452.472656 88.574219 461.34375 C 90.191406 470.210938 92.183594 479 94.546875 487.703125 C 96.90625 496.402344 99.632812 504.992188 102.71875 513.464844 C 105.804688 521.933594 109.246094 530.261719 113.035156 538.445312 C 116.824219 546.625 120.953125 554.632812 125.421875 562.46875 C 129.886719 570.300781 134.679688 577.933594 139.789062 585.359375 C 144.902344 592.789062 150.316406 599.988281 156.035156 606.960938 C 156.933594 608.0625 157.746094 609.222656 158.472656 610.445312 C 159.195312 611.667969 159.824219 612.9375 160.359375 614.253906 C 160.894531 615.570312 161.328125 616.917969 161.664062 618.300781 C 161.996094 619.679688 162.222656 621.078125 162.347656 622.496094 C 162.472656 623.910156 162.488281 625.328125 162.402344 626.746094 C 162.3125 628.164062 162.121094 629.566406 161.820312 630.957031 C 161.523438 632.34375 161.125 633.703125 160.621094 635.035156 C 160.121094 636.363281 159.523438 637.648438 158.828125 638.886719 L 131.113281 688.550781 C 123.425781 702.316406 135.949219 718.597656 151.230469 714.707031 L 245.109375 690.808594 C 248.386719 689.976562 251.703125 689.734375 255.0625 690.078125 C 258.421875 690.421875 261.621094 691.335938 264.660156 692.8125 C 275.007812 697.839844 285.597656 702.296875 296.429688 706.183594 C 307.257812 710.066406 318.265625 713.359375 329.453125 716.058594 C 340.636719 718.757812 351.933594 720.847656 363.34375 722.332031 C 374.753906 723.8125 386.210938 724.675781 397.714844 724.921875 C 578.199219 729.003906 726.339844 584.816406 726.902344 404.324219 C 727.460938 225.808594 582.585938 80.988281 404.023438 81.589844 Z M 405.132812 685.367188 C 400.515625 685.367188 395.898438 685.253906 391.289062 685.027344 C 386.675781 684.800781 382.074219 684.460938 377.476562 684.007812 C 372.882812 683.554688 368.300781 682.992188 363.734375 682.3125 C 359.167969 681.636719 354.621094 680.847656 350.089844 679.945312 C 345.5625 679.046875 341.058594 678.035156 336.582031 676.914062 C 332.101562 675.792969 327.652344 674.5625 323.234375 673.222656 C 318.816406 671.882812 314.433594 670.433594 310.085938 668.878906 C 305.738281 667.324219 301.433594 665.664062 297.167969 663.894531 C 292.902344 662.128906 288.683594 660.257812 284.507812 658.285156 C 280.335938 656.3125 276.210938 654.238281 272.140625 652.0625 C 268.066406 649.886719 264.050781 647.609375 260.089844 645.238281 C 256.128906 642.863281 252.230469 640.394531 248.390625 637.832031 C 244.550781 635.265625 240.777344 632.609375 237.070312 629.859375 C 233.363281 627.109375 229.722656 624.269531 226.152344 621.339844 C 222.585938 618.414062 219.089844 615.398438 215.667969 612.296875 C 212.246094 609.199219 208.90625 606.015625 205.640625 602.753906 C 202.375 599.488281 199.191406 596.144531 196.089844 592.726562 C 192.992188 589.304688 189.976562 585.808594 187.046875 582.242188 C 184.117188 578.671875 181.277344 575.035156 178.527344 571.328125 C 175.777344 567.621094 173.117188 563.847656 170.554688 560.007812 C 167.988281 556.171875 165.519531 552.269531 163.144531 548.3125 C 160.773438 544.351562 158.496094 540.335938 156.320312 536.265625 C 154.144531 532.195312 152.066406 528.070312 150.09375 523.898438 C 148.121094 519.726562 146.25 515.507812 144.480469 511.242188 C 142.714844 506.976562 141.054688 502.671875 139.5 498.324219 C 137.941406 493.980469 136.496094 489.597656 135.15625 485.179688 C 133.816406 480.761719 132.582031 476.3125 131.460938 471.835938 C 130.339844 467.359375 129.328125 462.855469 128.429688 458.328125 C 127.527344 453.800781 126.738281 449.253906 126.058594 444.6875 C 125.382812 440.121094 124.816406 435.539062 124.367188 430.945312 C 123.914062 426.351562 123.574219 421.75 123.347656 417.140625 C 123.121094 412.527344 123.007812 407.914062 123.007812 403.296875 C 123.007812 247.519531 249.320312 121.230469 405.132812 121.230469 C 560.339844 121.230469 686.273438 246.539062 687.25 401.484375 C 688.230469 556.953125 560.636719 685.367188 405.132812 685.367188 Z M 405.132812 685.367188 " fill-opacity="1" fill-rule="nonzero"/><path fill="#ffffff" d="M 354.707031 266.164062 L 354.839844 266.425781 L 371.664062 299.789062 C 372.570312 301.585938 373.324219 303.441406 373.929688 305.355469 C 374.535156 307.273438 374.984375 309.222656 375.273438 311.214844 C 375.5625 313.203125 375.691406 315.199219 375.660156 317.210938 C 375.628906 319.21875 375.433594 321.214844 375.082031 323.191406 C 374.726562 325.167969 374.21875 327.105469 373.550781 329.003906 C 372.882812 330.898438 372.070312 332.726562 371.105469 334.492188 C 370.144531 336.257812 369.046875 337.933594 367.816406 339.519531 C 366.582031 341.109375 365.230469 342.585938 363.757812 343.957031 C 362.292969 345.316406 360.949219 346.78125 359.71875 348.359375 C 358.488281 349.933594 357.394531 351.597656 356.433594 353.347656 C 355.472656 355.097656 354.65625 356.917969 353.988281 358.796875 C 353.316406 360.679688 352.804688 362.605469 352.441406 364.570312 C 352.082031 366.535156 351.882812 368.515625 351.839844 370.515625 C 351.800781 372.511719 351.917969 374.5 352.195312 376.476562 C 352.472656 378.457031 352.90625 380.398438 353.5 382.308594 C 354.089844 384.21875 354.828125 386.066406 355.714844 387.855469 C 365.816406 408.136719 383.316406 436.089844 410.023438 456.257812 C 411.511719 457.386719 413.078125 458.402344 414.714844 459.296875 C 416.355469 460.191406 418.054688 460.960938 419.808594 461.601562 C 421.5625 462.246094 423.355469 462.753906 425.1875 463.128906 C 427.015625 463.5 428.867188 463.738281 430.730469 463.835938 C 432.597656 463.933594 434.460938 463.890625 436.320312 463.710938 C 438.179688 463.527344 440.015625 463.210938 441.828125 462.753906 C 443.640625 462.300781 445.410156 461.710938 447.132812 460.992188 C 448.859375 460.269531 450.519531 459.425781 452.117188 458.457031 L 462.953125 451.867188 C 465.382812 450.386719 467.949219 449.203125 470.648438 448.308594 C 473.351562 447.417969 476.117188 446.839844 478.949219 446.578125 C 481.78125 446.316406 484.609375 446.378906 487.425781 446.761719 C 490.246094 447.148438 492.984375 447.84375 495.644531 448.855469 L 538.71875 465.226562 C 539.859375 465.664062 540.980469 466.152344 542.078125 466.695312 C 543.171875 467.242188 544.238281 467.839844 545.277344 468.488281 C 546.3125 469.136719 547.316406 469.835938 548.285156 470.585938 C 549.253906 471.332031 550.183594 472.128906 551.074219 472.96875 C 551.964844 473.804688 552.8125 474.6875 553.613281 475.609375 C 554.417969 476.53125 555.175781 477.492188 555.886719 478.488281 C 556.59375 479.488281 557.253906 480.515625 557.863281 481.578125 C 558.46875 482.640625 559.023438 483.726562 559.527344 484.84375 C 560.027344 485.960938 560.472656 487.097656 560.863281 488.257812 C 561.253906 489.417969 561.582031 490.59375 561.859375 491.789062 C 562.132812 492.980469 562.347656 494.183594 562.503906 495.398438 C 562.65625 496.609375 562.753906 497.828125 562.789062 499.050781 C 562.824219 500.277344 562.800781 501.496094 562.71875 502.71875 C 562.632812 503.9375 562.488281 505.152344 562.285156 506.359375 C 562.082031 507.566406 561.820312 508.757812 561.5 509.941406 C 561.179688 511.121094 560.800781 512.285156 560.367188 513.425781 C 559.863281 514.742188 559.289062 516.027344 558.644531 517.277344 L 546.710938 540.40625 C 546.226562 541.339844 545.707031 542.253906 545.148438 543.144531 C 544.589844 544.03125 543.992188 544.898438 543.359375 545.738281 C 542.726562 546.578125 542.0625 547.386719 541.359375 548.171875 C 540.660156 548.953125 539.929688 549.707031 539.164062 550.429688 C 538.398438 551.148438 537.605469 551.839844 536.785156 552.492188 C 535.960938 553.148438 535.113281 553.765625 534.242188 554.351562 C 533.367188 554.933594 532.46875 555.480469 531.546875 555.984375 C 530.628906 556.492188 529.6875 556.960938 528.730469 557.390625 C 527.769531 557.820312 526.792969 558.207031 525.800781 558.550781 C 524.808594 558.898438 523.804688 559.203125 522.785156 559.460938 C 521.765625 559.722656 520.738281 559.941406 519.703125 560.117188 C 518.667969 560.292969 517.625 560.421875 516.578125 560.507812 C 515.53125 560.597656 514.480469 560.636719 513.429688 560.636719 C 512.378906 560.636719 511.328125 560.589844 510.28125 560.5 C 509.234375 560.410156 508.195312 560.277344 507.15625 560.097656 C 506.121094 559.921875 505.09375 559.699219 504.078125 559.433594 C 436.429688 541.9375 275.207031 481.113281 262.214844 297.183594 C 262.085938 295.371094 262.089844 293.554688 262.226562 291.738281 C 262.363281 289.925781 262.632812 288.128906 263.03125 286.355469 C 263.429688 284.578125 263.957031 282.839844 264.609375 281.140625 C 265.261719 279.441406 266.035156 277.800781 266.925781 276.214844 C 267.820312 274.628906 268.824219 273.113281 269.9375 271.675781 C 271.050781 270.234375 272.261719 268.882812 273.574219 267.621094 C 274.886719 266.359375 276.28125 265.199219 277.761719 264.140625 C 279.242188 263.082031 280.792969 262.136719 282.410156 261.304688 L 304.378906 250.019531 C 305.46875 249.460938 306.582031 248.957031 307.71875 248.503906 C 308.859375 248.054688 310.015625 247.660156 311.191406 247.324219 C 312.367188 246.988281 313.558594 246.710938 314.765625 246.492188 C 315.96875 246.273438 317.179688 246.113281 318.398438 246.011719 C 319.621094 245.910156 320.84375 245.871094 322.066406 245.890625 C 323.289062 245.910156 324.511719 245.988281 325.726562 246.128906 C 326.941406 246.265625 328.148438 246.464844 329.34375 246.722656 C 330.542969 246.980469 331.722656 247.296875 332.886719 247.671875 C 334.054688 248.046875 335.199219 248.476562 336.320312 248.960938 C 337.445312 249.449219 338.542969 249.988281 339.613281 250.582031 C 340.683594 251.175781 341.71875 251.820312 342.726562 252.515625 C 343.734375 253.214844 344.703125 253.957031 345.636719 254.75 C 346.570312 255.539062 347.464844 256.375 348.316406 257.253906 C 349.167969 258.132812 349.972656 259.050781 350.734375 260.011719 C 351.496094 260.96875 352.210938 261.960938 352.875 262.992188 C 353.535156 264.019531 354.148438 265.078125 354.707031 266.164062 Z M 354.707031 266.164062 " fill-opacity="1" fill-rule="nonzero"/></svg>