<svg xmlns="http://www.w3.org/2000/svg" xmlns:xlink="http://www.w3.org/1999/xlink" width="1080" zoomAndPan="magnify" viewBox="0 0 810 809.999993" height="1080" preserveAspectRatio="xMidYMid meet" version="1.0"><path fill="#ffffff" d="M 405 729 C 583.972656 729 729 583.972656 729 405 C 729 226.027344 583.972656 81 405 81 C 226.027344 81 81 226.027344 81 405 C 81 583.972656 226.027344 729 405 729 Z M 265.371094 538.457031 L 281.570312 502.972656 C 283.886719 498.34375 286.972656 495.257812 291.601562 493.714844 C 293.144531 492.941406 295.457031 492.941406 297 492.941406 C 300.085938 492.941406 302.398438 493.714844 305.484375 495.257812 C 329.398438 508.371094 362.570312 516.085938 392.65625 516.085938 C 428.144531 516.085938 454.371094 501.429688 454.371094 481.371094 C 454.371094 468.257812 446.65625 452.828125 391.886719 435.085938 C 331.714844 416.570312 270.769531 388.800781 270.769531 327.085938 C 270.769531 280.027344 304.714844 243.769531 361.800781 229.113281 L 370.285156 226.800781 L 370.285156 188.230469 C 370.285156 178.972656 378 171.257812 387.257812 171.257812 L 428.144531 171.257812 C 437.398438 171.257812 445.113281 178.972656 445.113281 188.230469 L 445.113281 222.941406 L 455.144531 224.484375 C 479.828125 227.570312 501.429688 233.742188 520.714844 243 C 524.570312 245.3125 528.429688 248.398438 529.972656 253.027344 C 531.515625 257.65625 531.515625 262.285156 529.199219 266.144531 L 513 300.085938 C 509.914062 306.257812 503.742188 310.113281 497.570312 310.113281 C 495.257812 310.113281 492.941406 309.34375 490.628906 308.570312 C 479.828125 303.941406 454.371094 292.371094 414.257812 292.371094 C 378 292.371094 361.800781 306.257812 361.800781 320.914062 C 361.800781 336.34375 378.769531 347.144531 432 364.886719 C 488.3125 383.398438 546.171875 411.171875 546.171875 478.285156 C 546.171875 514.542969 520.714844 563.144531 450.515625 580.886719 L 441.257812 582.429688 L 441.257812 622.542969 C 441.257812 631.800781 433.542969 639.515625 424.285156 639.515625 L 382.628906 639.515625 C 373.371094 639.515625 365.65625 631.800781 365.65625 622.542969 L 365.65625 585.515625 L 355.628906 584.742188 C 324 580.886719 293.914062 572.398438 273.855469 560.828125 C 264.601562 556.199219 261.515625 546.941406 265.371094 538.457031 Z M 265.371094 538.457031 " fill-opacity="1" fill-rule="nonzero"/></svg>