<svg xmlns="http://www.w3.org/2000/svg" xmlns:xlink="http://www.w3.org/1999/xlink" width="1080" zoomAndPan="magnify" viewBox="0 0 810 809.999993" height="1080" preserveAspectRatio="xMidYMid meet" version="1.0"><path fill="#ff4500" d="M 729 405 C 729 410.300781 728.871094 415.601562 728.609375 420.898438 C 728.347656 426.195312 727.960938 431.480469 727.441406 436.757812 C 726.921875 442.035156 726.269531 447.296875 725.492188 452.539062 C 724.714844 457.785156 723.808594 463.007812 722.773438 468.210938 C 721.738281 473.410156 720.578125 478.582031 719.289062 483.726562 C 718 488.871094 716.585938 493.976562 715.046875 499.050781 C 713.507812 504.125 711.847656 509.160156 710.058594 514.152344 C 708.273438 519.144531 706.367188 524.089844 704.335938 528.988281 C 702.308594 533.886719 700.160156 538.734375 697.890625 543.527344 C 695.625 548.320312 693.242188 553.054688 690.742188 557.734375 C 688.242188 562.410156 685.628906 567.019531 682.902344 571.570312 C 680.179688 576.117188 677.34375 580.597656 674.394531 585.003906 C 671.449219 589.414062 668.398438 593.746094 665.238281 598.007812 C 662.082031 602.265625 658.820312 606.445312 655.457031 610.542969 C 652.089844 614.640625 648.628906 618.65625 645.066406 622.585938 C 641.507812 626.515625 637.851562 630.351562 634.101562 634.101562 C 630.351562 637.851562 626.515625 641.507812 622.585938 645.066406 C 618.65625 648.628906 614.640625 652.089844 610.542969 655.457031 C 606.445312 658.820312 602.265625 662.082031 598.007812 665.238281 C 593.746094 668.398438 589.414062 671.449219 585.003906 674.394531 C 580.597656 677.34375 576.117188 680.179688 571.570312 682.902344 C 567.019531 685.628906 562.410156 688.242188 557.734375 690.742188 C 553.054688 693.242188 548.320312 695.625 543.527344 697.890625 C 538.734375 700.160156 533.886719 702.308594 528.988281 704.335938 C 524.089844 706.367188 519.144531 708.273438 514.152344 710.058594 C 509.160156 711.847656 504.125 713.507812 499.050781 715.046875 C 493.976562 716.585938 488.867188 718 483.726562 719.289062 C 478.582031 720.578125 473.410156 721.738281 468.210938 722.773438 C 463.007812 723.808594 457.785156 724.714844 452.539062 725.492188 C 447.296875 726.269531 442.035156 726.921875 436.757812 727.441406 C 431.480469 727.960938 426.195312 728.347656 420.898438 728.609375 C 415.601562 728.871094 410.300781 729 405 729 C 399.699219 729 394.398438 728.871094 389.101562 728.609375 C 383.804688 728.347656 378.519531 727.960938 373.242188 727.441406 C 367.964844 726.921875 362.703125 726.269531 357.460938 725.492188 C 352.214844 724.714844 346.992188 723.808594 341.789062 722.773438 C 336.589844 721.738281 331.417969 720.578125 326.273438 719.289062 C 321.128906 718 316.023438 716.585938 310.949219 715.046875 C 305.875 713.507812 300.839844 711.847656 295.847656 710.058594 C 290.855469 708.273438 285.910156 706.367188 281.011719 704.335938 C 276.113281 702.308594 271.265625 700.160156 266.472656 697.890625 C 261.679688 695.625 256.945312 693.242188 252.265625 690.742188 C 247.589844 688.242188 242.980469 685.628906 238.429688 682.902344 C 233.882812 680.179688 229.402344 677.34375 224.996094 674.394531 C 220.585938 671.449219 216.253906 668.398438 211.992188 665.238281 C 207.734375 662.082031 203.554688 658.820312 199.457031 655.457031 C 195.359375 652.089844 191.34375 648.628906 187.414062 645.066406 C 183.484375 641.507812 179.648438 637.851562 175.898438 634.101562 C 172.148438 630.351562 168.492188 626.515625 164.933594 622.585938 C 161.371094 618.65625 157.910156 614.640625 154.542969 610.542969 C 151.179688 606.445312 147.917969 602.265625 144.761719 598.007812 C 141.601562 593.746094 138.550781 589.414062 135.605469 585.003906 C 132.65625 580.597656 129.820312 576.117188 127.097656 571.570312 C 124.371094 567.019531 121.757812 562.410156 119.257812 557.734375 C 116.757812 553.054688 114.375 548.320312 112.109375 543.527344 C 109.839844 538.734375 107.691406 533.886719 105.664062 528.988281 C 103.632812 524.089844 101.726562 519.144531 99.941406 514.152344 C 98.152344 509.160156 96.492188 504.125 94.953125 499.050781 C 93.410156 493.976562 92 488.871094 90.710938 483.726562 C 89.421875 478.582031 88.261719 473.410156 87.226562 468.210938 C 86.191406 463.007812 85.285156 457.785156 84.507812 452.539062 C 83.730469 447.296875 83.078125 442.035156 82.558594 436.757812 C 82.039062 431.480469 81.652344 426.195312 81.390625 420.898438 C 81.128906 415.601562 81 410.300781 81 405 C 81 399.699219 81.128906 394.398438 81.390625 389.101562 C 81.652344 383.804688 82.039062 378.519531 82.558594 373.242188 C 83.078125 367.964844 83.730469 362.703125 84.507812 357.460938 C 85.285156 352.214844 86.191406 346.992188 87.226562 341.789062 C 88.261719 336.589844 89.421875 331.417969 90.710938 326.273438 C 92 321.128906 93.410156 316.023438 94.953125 310.949219 C 96.492188 305.875 98.152344 300.839844 99.941406 295.847656 C 101.726562 290.855469 103.632812 285.910156 105.664062 281.011719 C 107.691406 276.113281 109.839844 271.265625 112.109375 266.472656 C 114.375 261.679688 116.757812 256.945312 119.257812 252.265625 C 121.757812 247.589844 124.371094 242.980469 127.097656 238.429688 C 129.820312 233.882812 132.65625 229.402344 135.605469 224.996094 C 138.550781 220.585938 141.601562 216.253906 144.761719 211.992188 C 147.917969 207.734375 151.179688 203.554688 154.542969 199.457031 C 157.910156 195.359375 161.371094 191.34375 164.933594 187.414062 C 168.492188 183.484375 172.148438 179.648438 175.898438 175.898438 C 179.648438 172.148438 183.484375 168.492188 187.414062 164.933594 C 191.34375 161.371094 195.359375 157.910156 199.457031 154.542969 C 203.554688 151.179688 207.734375 147.917969 211.992188 144.761719 C 216.253906 141.601562 220.585938 138.550781 224.996094 135.605469 C 229.402344 132.65625 233.882812 129.820312 238.429688 127.097656 C 242.980469 124.371094 247.589844 121.757812 252.265625 119.257812 C 256.945312 116.757812 261.679688 114.375 266.472656 112.109375 C 271.265625 109.839844 276.113281 107.691406 281.011719 105.664062 C 285.910156 103.632812 290.855469 101.726562 295.847656 99.941406 C 300.839844 98.152344 305.875 96.492188 310.949219 94.953125 C 316.023438 93.414062 321.128906 92 326.273438 90.710938 C 331.417969 89.421875 336.589844 88.261719 341.789062 87.226562 C 346.992188 86.191406 352.214844 85.285156 357.460938 84.507812 C 362.703125 83.730469 367.964844 83.078125 373.242188 82.558594 C 378.519531 82.039062 383.804688 81.652344 389.101562 81.390625 C 394.398438 81.128906 399.699219 81 405 81 C 410.300781 81 415.601562 81.128906 420.898438 81.390625 C 426.195312 81.652344 431.480469 82.039062 436.757812 82.558594 C 442.035156 83.078125 447.296875 83.730469 452.539062 84.507812 C 457.785156 85.285156 463.007812 86.191406 468.210938 87.226562 C 473.410156 88.261719 478.582031 89.421875 483.726562 90.710938 C 488.867188 92 493.976562 93.410156 499.050781 94.953125 C 504.125 96.492188 509.160156 98.152344 514.152344 99.941406 C 519.144531 101.726562 524.089844 103.632812 528.988281 105.664062 C 533.886719 107.691406 538.734375 109.839844 543.527344 112.109375 C 548.320312 114.375 553.054688 116.757812 557.734375 119.257812 C 562.410156 121.757812 567.019531 124.371094 571.570312 127.097656 C 576.117188 129.820312 580.597656 132.65625 585.003906 135.605469 C 589.414062 138.550781 593.746094 141.601562 598.007812 144.761719 C 602.265625 147.917969 606.445312 151.179688 610.542969 154.542969 C 614.640625 157.910156 618.65625 161.371094 622.585938 164.933594 C 626.515625 168.492188 630.351562 172.148438 634.101562 175.898438 C 637.851562 179.648438 641.507812 183.484375 645.066406 187.414062 C 648.628906 191.34375 652.089844 195.359375 655.457031 199.457031 C 658.820312 203.554688 662.082031 207.734375 665.238281 211.992188 C 668.398438 216.253906 671.449219 220.585938 674.394531 224.996094 C 677.34375 229.402344 680.179688 233.882812 682.902344 238.429688 C 685.628906 242.980469 688.242188 247.589844 690.742188 252.265625 C 693.242188 256.945312 695.625 261.679688 697.890625 266.472656 C 700.160156 271.265625 702.308594 276.113281 704.335938 281.011719 C 706.367188 285.910156 708.273438 290.855469 710.058594 295.847656 C 711.847656 300.839844 713.507812 305.875 715.046875 310.949219 C 716.585938 316.023438 718 321.128906 719.289062 326.273438 C 720.578125 331.417969 721.738281 336.589844 722.773438 341.789062 C 723.808594 346.992188 724.714844 352.214844 725.492188 357.460938 C 726.269531 362.703125 726.921875 367.964844 727.441406 373.242188 C 727.960938 378.519531 728.347656 383.804688 728.609375 389.101562 C 728.871094 394.398438 729 399.699219 729 405 Z M 729 405 " fill-opacity="1" fill-rule="nonzero"/><path fill="#ffffff" d="M 333.546875 295.011719 C 344.722656 294.957031 355.753906 296.195312 366.636719 298.726562 C 376.539062 300.941406 386.1875 303.964844 395.582031 307.800781 L 379.945312 347.804688 C 373.414062 344.972656 366.675781 342.773438 359.730469 341.203125 C 352.789062 339.632812 345.757812 338.722656 338.644531 338.472656 C 337.859375 338.410156 337.074219 338.394531 336.289062 338.425781 C 335.5 338.453125 334.71875 338.527344 333.941406 338.648438 C 333.164062 338.765625 332.394531 338.929688 331.636719 339.136719 C 330.878906 339.347656 330.132812 339.597656 329.402344 339.890625 C 328.671875 340.1875 327.960938 340.519531 327.269531 340.898438 C 326.578125 341.273438 325.910156 341.6875 325.265625 342.140625 C 324.625 342.59375 324.007812 343.082031 323.421875 343.605469 C 322.832031 344.128906 322.277344 344.683594 321.753906 345.273438 C 321.230469 345.859375 320.742188 346.476562 320.292969 347.121094 C 319.839844 347.765625 319.425781 348.433594 319.050781 349.125 C 318.675781 349.816406 318.339844 350.527344 318.046875 351.257812 C 317.753906 351.988281 317.503906 352.734375 317.296875 353.492188 C 317.089844 354.25 316.925781 355.019531 316.808594 355.796875 C 316.6875 356.574219 316.617188 357.359375 316.585938 358.144531 C 316.558594 358.929688 316.574219 359.71875 316.636719 360.5 C 316.699219 361.285156 316.804688 362.066406 316.957031 362.835938 L 316.957031 386.769531 L 373.203125 386.769531 L 373.203125 424.785156 L 316.957031 424.785156 L 316.957031 443.878906 C 317.125 446.09375 317.074219 448.304688 316.808594 450.511719 C 316.542969 452.714844 316.0625 454.875 315.375 456.984375 C 314.683594 459.097656 313.796875 461.121094 312.710938 463.0625 C 311.625 465 310.363281 466.8125 308.921875 468.503906 C 304.226562 473.613281 298.8125 477.789062 292.679688 481.03125 L 401.628906 481.03125 L 401.628906 526.390625 L 237.46875 526.390625 L 237.46875 483.191406 C 242.539062 480.695312 247.375 477.816406 251.984375 474.550781 C 253.960938 473.089844 255.71875 471.398438 257.253906 469.480469 C 258.792969 467.5625 260.058594 465.480469 261.058594 463.234375 C 263.511719 457.339844 264.605469 451.207031 264.339844 444.832031 L 264.339844 424.785156 L 237.039062 424.785156 L 237.039062 386.769531 L 263.910156 386.769531 L 263.910156 361.800781 C 263.539062 355.085938 264.085938 348.453125 265.554688 341.890625 C 267.023438 335.332031 269.355469 329.09375 272.546875 323.179688 C 273.992188 320.785156 275.617188 318.523438 277.421875 316.390625 C 279.230469 314.257812 281.191406 312.28125 283.3125 310.460938 C 285.433594 308.640625 287.683594 307 290.066406 305.539062 C 292.449219 304.078125 294.933594 302.816406 297.519531 301.753906 C 303.226562 299.402344 309.117188 297.660156 315.183594 296.527344 C 321.253906 295.390625 327.375 294.886719 333.546875 295.011719 Z M 575.46875 460.296875 C 575.570312 466.527344 574.8125 472.652344 573.199219 478.675781 C 571.582031 484.695312 569.171875 490.375 565.964844 495.71875 C 564.246094 498.449219 562.335938 501.042969 560.234375 503.492188 C 558.132812 505.941406 555.863281 508.222656 553.429688 510.335938 C 550.992188 512.453125 548.414062 514.375 545.691406 516.113281 C 542.972656 517.847656 540.136719 519.371094 537.191406 520.691406 C 529.558594 523.882812 521.664062 526.210938 513.519531 527.667969 C 505.371094 529.125 497.164062 529.679688 488.894531 529.328125 C 476.671875 529.460938 464.574219 528.28125 452.605469 525.789062 C 441.941406 523.402344 431.65625 519.886719 421.761719 515.246094 L 421.761719 466.085938 C 433.242188 471.339844 445.019531 475.804688 457.097656 479.476562 C 468.351562 482.988281 479.871094 484.804688 491.660156 484.921875 C 493.65625 485.105469 495.652344 485.117188 497.648438 484.960938 C 499.648438 484.804688 501.617188 484.476562 503.5625 483.984375 C 505.503906 483.492188 507.390625 482.839844 509.222656 482.023438 C 511.054688 481.207031 512.800781 480.246094 514.46875 479.132812 C 515.585938 478.230469 516.585938 477.214844 517.46875 476.082031 C 518.351562 474.949219 519.089844 473.730469 519.691406 472.425781 C 520.289062 471.121094 520.734375 469.765625 521.019531 468.359375 C 521.304688 466.953125 521.425781 465.53125 521.378906 464.097656 C 521.371094 463.175781 521.300781 462.257812 521.167969 461.34375 C 521.03125 460.433594 520.839844 459.53125 520.582031 458.648438 C 520.324219 457.761719 520.011719 456.898438 519.636719 456.054688 C 519.261719 455.210938 518.832031 454.398438 518.347656 453.613281 C 517.863281 452.828125 517.324219 452.078125 516.738281 451.367188 C 516.152344 450.65625 515.519531 449.988281 514.839844 449.363281 C 514.164062 448.738281 513.445312 448.160156 512.6875 447.632812 C 511.933594 447.105469 511.144531 446.632812 510.320312 446.210938 C 499.988281 440.226562 489.359375 434.8125 478.441406 429.96875 C 469.5 425.632812 460.859375 420.765625 452.519531 415.367188 C 448.339844 412.679688 444.511719 409.554688 441.042969 405.996094 C 437.570312 402.4375 434.542969 398.53125 431.957031 394.285156 C 429.085938 389.199219 426.964844 383.8125 425.601562 378.128906 C 424.234375 372.449219 423.675781 366.6875 423.921875 360.851562 C 423.789062 358.527344 423.796875 356.207031 423.945312 353.882812 C 424.089844 351.5625 424.375 349.257812 424.800781 346.972656 C 425.222656 344.683594 425.78125 342.433594 426.476562 340.210938 C 427.171875 337.992188 427.996094 335.824219 428.953125 333.703125 C 429.90625 331.582031 430.988281 329.527344 432.1875 327.535156 C 433.390625 325.542969 434.707031 323.632812 436.140625 321.800781 C 437.574219 319.964844 439.109375 318.226562 440.75 316.578125 C 442.394531 314.929688 444.125 313.386719 445.953125 311.945312 C 450.238281 308.925781 454.742188 306.273438 459.46875 303.996094 C 464.191406 301.71875 469.070312 299.84375 474.105469 298.375 C 479.140625 296.90625 484.261719 295.859375 489.46875 295.238281 C 494.675781 294.613281 499.898438 294.425781 505.136719 294.667969 C 517.628906 294.558594 529.929688 296.054688 542.03125 299.160156 C 553.359375 302.136719 564.386719 305.964844 575.121094 310.652344 L 557.839844 353.160156 C 548.53125 349.003906 538.972656 345.550781 529.15625 342.792969 C 520.683594 340.402344 512.042969 339.195312 503.238281 339.164062 C 499.769531 338.875 496.355469 339.191406 493 340.113281 C 489.640625 341.03125 486.546875 342.5 483.710938 344.519531 C 482.683594 345.351562 481.765625 346.289062 480.957031 347.328125 C 480.144531 348.371094 479.460938 349.492188 478.910156 350.691406 C 478.355469 351.886719 477.941406 353.132812 477.675781 354.425781 C 477.40625 355.71875 477.285156 357.023438 477.316406 358.34375 C 477.3125 360.5 477.695312 362.585938 478.472656 364.597656 C 479.246094 366.609375 480.359375 368.414062 481.808594 370.007812 C 485.898438 374.15625 490.5625 377.496094 495.804688 380.03125 C 502.199219 383.488281 510.667969 387.632812 521.121094 392.472656 C 531.523438 397.070312 541.34375 402.6875 550.582031 409.320312 C 554.453125 412.066406 557.957031 415.222656 561.09375 418.78125 C 564.234375 422.34375 566.921875 426.214844 569.160156 430.402344 C 571.425781 435.050781 573.101562 439.902344 574.183594 444.957031 C 575.265625 450.015625 575.722656 455.128906 575.554688 460.296875 Z M 575.46875 460.296875 " fill-opacity="1" fill-rule="nonzero"/></svg>