<svg xmlns="http://www.w3.org/2000/svg" xmlns:xlink="http://www.w3.org/1999/xlink" width="1080" zoomAndPan="magnify" viewBox="0 0 810 809.999993" height="1080" preserveAspectRatio="xMidYMid meet" version="1.0"><defs><clipPath id="63ff3e762d"><path d="M 81 93.984375 L 729 93.984375 L 729 741.984375 L 81 741.984375 Z M 81 93.984375 " clip-rule="nonzero"/></clipPath></defs><g clip-path="url(#63ff3e762d)"><path fill="#ffffff" d="M 729 417.984375 C 729 423.289062 728.871094 428.585938 728.609375 433.882812 C 728.347656 439.179688 727.960938 444.464844 727.441406 449.742188 C 726.921875 455.019531 726.269531 460.28125 725.492188 465.527344 C 724.714844 470.773438 723.808594 475.996094 722.773438 481.195312 C 721.738281 486.394531 720.578125 491.566406 719.289062 496.710938 C 718 501.855469 716.585938 506.964844 715.046875 512.039062 C 713.507812 517.113281 711.847656 522.144531 710.058594 527.136719 C 708.273438 532.128906 706.367188 537.078125 704.335938 541.976562 C 702.308594 546.875 700.160156 551.71875 697.890625 556.515625 C 695.625 561.308594 693.242188 566.042969 690.742188 570.71875 C 688.242188 575.394531 685.628906 580.007812 682.902344 584.554688 C 680.179688 589.101562 677.34375 593.582031 674.394531 597.992188 C 671.449219 602.398438 668.398438 606.734375 665.238281 610.992188 C 662.082031 615.25 658.820312 619.429688 655.457031 623.53125 C 652.089844 627.628906 648.628906 631.640625 645.066406 635.570312 C 641.507812 639.5 637.851562 643.339844 634.101562 647.089844 C 630.351562 650.839844 626.515625 654.492188 622.585938 658.054688 C 618.65625 661.613281 614.640625 665.078125 610.542969 668.441406 C 606.445312 671.804688 602.265625 675.066406 598.007812 678.226562 C 593.746094 681.382812 589.414062 684.4375 585.003906 687.382812 C 580.597656 690.328125 576.117188 693.164062 571.570312 695.890625 C 567.019531 698.617188 562.410156 701.230469 557.734375 703.726562 C 553.054688 706.226562 548.320312 708.609375 543.527344 710.878906 C 538.734375 713.144531 533.886719 715.292969 528.988281 717.324219 C 524.089844 719.351562 519.144531 721.257812 514.152344 723.046875 C 509.160156 724.832031 504.125 726.496094 499.050781 728.035156 C 493.976562 729.574219 488.867188 730.988281 483.726562 732.277344 C 478.582031 733.5625 473.410156 734.726562 468.210938 735.761719 C 463.007812 736.792969 457.785156 737.699219 452.539062 738.480469 C 447.296875 739.257812 442.035156 739.90625 436.757812 740.425781 C 431.480469 740.945312 426.195312 741.335938 420.898438 741.59375 C 415.601562 741.855469 410.300781 741.984375 405 741.984375 C 399.699219 741.984375 394.398438 741.855469 389.101562 741.59375 C 383.804688 741.335938 378.519531 740.945312 373.242188 740.425781 C 367.964844 739.90625 362.703125 739.257812 357.460938 738.480469 C 352.214844 737.699219 346.992188 736.792969 341.789062 735.761719 C 336.589844 734.726562 331.417969 733.5625 326.273438 732.277344 C 321.128906 730.988281 316.023438 729.574219 310.949219 728.035156 C 305.875 726.496094 300.839844 724.832031 295.847656 723.046875 C 290.855469 721.257812 285.910156 719.351562 281.011719 717.324219 C 276.113281 715.292969 271.265625 713.144531 266.472656 710.878906 C 261.679688 708.613281 256.945312 706.226562 252.265625 703.726562 C 247.589844 701.230469 242.980469 698.617188 238.429688 695.890625 C 233.882812 693.164062 229.402344 690.328125 224.996094 687.382812 C 220.585938 684.4375 216.253906 681.382812 211.992188 678.226562 C 207.734375 675.066406 203.554688 671.804688 199.457031 668.441406 C 195.359375 665.078125 191.34375 661.613281 187.414062 658.054688 C 183.484375 654.492188 179.648438 650.839844 175.898438 647.089844 C 172.148438 643.339844 168.492188 639.5 164.933594 635.570312 C 161.371094 631.640625 157.910156 627.628906 154.542969 623.53125 C 151.179688 619.429688 147.917969 615.25 144.761719 610.992188 C 141.601562 606.734375 138.550781 602.398438 135.605469 597.992188 C 132.65625 593.582031 129.820312 589.101562 127.097656 584.554688 C 124.371094 580.007812 121.757812 575.394531 119.257812 570.71875 C 116.757812 566.042969 114.375 561.308594 112.109375 556.515625 C 109.839844 551.71875 107.691406 546.875 105.664062 541.976562 C 103.632812 537.078125 101.726562 532.128906 99.941406 527.136719 C 98.152344 522.144531 96.492188 517.113281 94.953125 512.039062 C 93.410156 506.964844 92 501.855469 90.710938 496.710938 C 89.421875 491.566406 88.261719 486.394531 87.226562 481.195312 C 86.191406 475.996094 85.285156 470.773438 84.507812 465.527344 C 83.730469 460.28125 83.078125 455.019531 82.558594 449.742188 C 82.039062 444.464844 81.652344 439.179688 81.390625 433.882812 C 81.128906 428.585938 81 423.289062 81 417.984375 C 81 412.683594 81.128906 407.382812 81.390625 402.089844 C 81.652344 396.792969 82.039062 391.503906 82.558594 386.226562 C 83.078125 380.953125 83.730469 375.691406 84.507812 370.445312 C 85.285156 365.199219 86.191406 359.976562 87.226562 354.777344 C 88.261719 349.574219 89.421875 344.402344 90.710938 339.261719 C 92 334.117188 93.410156 329.007812 94.953125 323.933594 C 96.492188 318.859375 98.152344 313.828125 99.941406 308.832031 C 101.726562 303.839844 103.632812 298.894531 105.664062 293.996094 C 107.691406 289.097656 109.839844 284.25 112.109375 279.457031 C 114.375 274.664062 116.757812 269.929688 119.257812 265.253906 C 121.757812 260.578125 124.371094 255.964844 127.097656 251.417969 C 129.820312 246.867188 132.65625 242.390625 135.605469 237.980469 C 138.550781 233.574219 141.601562 229.238281 144.761719 224.980469 C 147.917969 220.71875 151.179688 216.542969 154.542969 212.441406 C 157.910156 208.34375 161.371094 204.328125 164.933594 200.402344 C 168.492188 196.472656 172.148438 192.632812 175.898438 188.882812 C 179.648438 185.132812 183.484375 181.480469 187.414062 177.917969 C 191.34375 174.355469 195.359375 170.894531 199.457031 167.53125 C 203.554688 164.167969 207.734375 160.90625 211.992188 157.746094 C 216.253906 154.589844 220.585938 151.535156 224.996094 148.589844 C 229.402344 145.644531 233.882812 142.808594 238.429688 140.082031 C 242.980469 137.355469 247.589844 134.742188 252.265625 132.242188 C 256.945312 129.742188 261.679688 127.359375 266.472656 125.09375 C 271.265625 122.828125 276.113281 120.679688 281.011719 118.648438 C 285.910156 116.621094 290.855469 114.710938 295.847656 112.925781 C 300.839844 111.140625 305.875 109.476562 310.949219 107.9375 C 316.023438 106.398438 321.128906 104.984375 326.273438 103.695312 C 331.417969 102.40625 336.589844 101.246094 341.789062 100.210938 C 346.992188 99.175781 352.214844 98.269531 357.460938 97.492188 C 362.703125 96.714844 367.964844 96.066406 373.242188 95.546875 C 378.519531 95.027344 383.804688 94.636719 389.101562 94.375 C 394.398438 94.117188 399.699219 93.984375 405 93.984375 C 410.300781 93.984375 415.601562 94.117188 420.898438 94.375 C 426.195312 94.636719 431.480469 95.027344 436.757812 95.546875 C 442.035156 96.066406 447.296875 96.714844 452.539062 97.492188 C 457.785156 98.269531 463.007812 99.175781 468.210938 100.210938 C 473.410156 101.246094 478.582031 102.40625 483.726562 103.695312 C 488.867188 104.984375 493.976562 106.398438 499.050781 107.9375 C 504.125 109.476562 509.160156 111.140625 514.152344 112.925781 C 519.144531 114.710938 524.089844 116.621094 528.988281 118.648438 C 533.886719 120.679688 538.734375 122.828125 543.527344 125.09375 C 548.320312 127.359375 553.054688 129.742188 557.734375 132.242188 C 562.410156 134.742188 567.019531 137.355469 571.570312 140.082031 C 576.117188 142.808594 580.597656 145.644531 585.003906 148.589844 C 589.414062 151.535156 593.746094 154.589844 598.007812 157.746094 C 602.265625 160.90625 606.445312 164.167969 610.542969 167.53125 C 614.640625 170.894531 618.65625 174.355469 622.585938 177.917969 C 626.515625 181.480469 630.351562 185.132812 634.101562 188.882812 C 637.851562 192.632812 641.507812 196.472656 645.066406 200.402344 C 648.628906 204.328125 652.089844 208.34375 655.457031 212.441406 C 658.820312 216.542969 662.082031 220.71875 665.238281 224.980469 C 668.398438 229.238281 671.449219 233.574219 674.394531 237.980469 C 677.34375 242.390625 680.179688 246.867188 682.902344 251.417969 C 685.628906 255.964844 688.242188 260.578125 690.742188 265.253906 C 693.242188 269.929688 695.625 274.664062 697.890625 279.457031 C 700.160156 284.25 702.308594 289.097656 704.335938 293.996094 C 706.367188 298.894531 708.273438 303.839844 710.058594 308.832031 C 711.847656 313.828125 713.507812 318.859375 715.046875 323.933594 C 716.585938 329.007812 718 334.117188 719.289062 339.261719 C 720.578125 344.402344 721.738281 349.574219 722.773438 354.777344 C 723.808594 359.976562 724.714844 365.199219 725.492188 370.445312 C 726.269531 375.691406 726.921875 380.953125 727.441406 386.226562 C 727.960938 391.503906 728.347656 396.792969 728.609375 402.089844 C 728.871094 407.382812 729 412.683594 729 417.984375 Z M 729 417.984375 " fill-opacity="1" fill-rule="nonzero"/></g><path fill="#ff4500" d="M 333.546875 308 C 344.722656 307.941406 355.753906 309.179688 366.636719 311.714844 C 376.539062 313.925781 386.1875 316.949219 395.582031 320.785156 L 379.945312 360.789062 C 373.414062 357.957031 366.675781 355.757812 359.730469 354.1875 C 352.789062 352.621094 345.757812 351.710938 338.644531 351.457031 C 337.859375 351.398438 337.074219 351.378906 336.289062 351.410156 C 335.5 351.4375 334.71875 351.515625 333.941406 351.632812 C 333.164062 351.753906 332.394531 351.917969 331.636719 352.125 C 330.878906 352.332031 330.132812 352.582031 329.402344 352.878906 C 328.671875 353.171875 327.960938 353.507812 327.269531 353.882812 C 326.578125 354.257812 325.910156 354.671875 325.265625 355.125 C 324.625 355.578125 324.007812 356.066406 323.421875 356.589844 C 322.832031 357.113281 322.277344 357.671875 321.753906 358.257812 C 321.230469 358.847656 320.742188 359.460938 320.292969 360.105469 C 319.839844 360.75 319.425781 361.417969 319.050781 362.109375 C 318.675781 362.800781 318.339844 363.511719 318.046875 364.242188 C 317.753906 364.972656 317.503906 365.71875 317.296875 366.476562 C 317.089844 367.238281 316.925781 368.007812 316.808594 368.785156 C 316.6875 369.5625 316.617188 370.34375 316.585938 371.132812 C 316.558594 371.917969 316.574219 372.703125 316.636719 373.488281 C 316.699219 374.273438 316.804688 375.050781 316.957031 375.824219 L 316.957031 399.753906 L 373.203125 399.753906 L 373.203125 437.773438 L 316.957031 437.773438 L 316.957031 456.867188 C 317.125 459.082031 317.074219 461.292969 316.808594 463.496094 C 316.542969 465.703125 316.0625 467.859375 315.375 469.972656 C 314.683594 472.082031 313.796875 474.109375 312.710938 476.046875 C 311.625 477.984375 310.363281 479.800781 308.921875 481.488281 C 304.226562 486.597656 298.8125 490.773438 292.679688 494.019531 L 401.628906 494.019531 L 401.628906 539.378906 L 237.46875 539.378906 L 237.46875 496.179688 C 242.539062 493.683594 247.375 490.804688 251.984375 487.539062 C 253.960938 486.074219 255.71875 484.386719 257.253906 482.46875 C 258.792969 480.550781 260.058594 478.464844 261.058594 476.21875 C 263.511719 470.328125 264.605469 464.191406 264.339844 457.816406 L 264.339844 437.773438 L 237.039062 437.773438 L 237.039062 399.753906 L 263.910156 399.753906 L 263.910156 374.785156 C 263.539062 368.074219 264.085938 361.4375 265.554688 354.878906 C 267.023438 348.316406 269.355469 342.078125 272.546875 336.164062 C 273.992188 333.773438 275.617188 331.507812 277.421875 329.375 C 279.230469 327.242188 281.191406 325.265625 283.3125 323.445312 C 285.433594 321.625 287.683594 319.984375 290.066406 318.523438 C 292.449219 317.066406 294.933594 315.800781 297.519531 314.738281 C 303.226562 312.390625 309.117188 310.648438 315.183594 309.511719 C 321.253906 308.375 327.375 307.871094 333.546875 308 Z M 575.46875 473.28125 C 575.570312 479.515625 574.8125 485.640625 573.199219 491.660156 C 571.582031 497.679688 569.171875 503.363281 565.964844 508.707031 C 564.246094 511.4375 562.335938 514.027344 560.234375 516.476562 C 558.132812 518.925781 555.863281 521.207031 553.429688 523.324219 C 550.992188 525.4375 548.414062 527.363281 545.691406 529.097656 C 542.972656 530.832031 540.136719 532.359375 537.191406 533.675781 C 529.558594 536.871094 521.664062 539.195312 513.519531 540.652344 C 505.371094 542.109375 497.164062 542.664062 488.894531 542.316406 C 476.671875 542.449219 464.574219 541.269531 452.605469 538.773438 C 441.941406 536.386719 431.65625 532.875 421.761719 528.230469 L 421.761719 479.070312 C 433.242188 484.324219 445.019531 488.789062 457.097656 492.460938 C 468.351562 495.976562 479.871094 497.789062 491.660156 497.90625 C 493.65625 498.089844 495.652344 498.101562 497.648438 497.945312 C 499.648438 497.789062 501.617188 497.464844 503.5625 496.972656 C 505.503906 496.476562 507.390625 495.824219 509.222656 495.007812 C 511.054688 494.195312 512.800781 493.230469 514.46875 492.117188 C 515.585938 491.214844 516.585938 490.199219 517.46875 489.066406 C 518.351562 487.933594 519.089844 486.714844 519.691406 485.414062 C 520.289062 484.109375 520.734375 482.753906 521.019531 481.347656 C 521.304688 479.9375 521.425781 478.519531 521.378906 477.082031 C 521.371094 476.160156 521.300781 475.242188 521.167969 474.332031 C 521.03125 473.417969 520.839844 472.519531 520.582031 471.632812 C 520.324219 470.746094 520.011719 469.882812 519.636719 469.039062 C 519.261719 468.195312 518.832031 467.382812 518.347656 466.597656 C 517.863281 465.8125 517.324219 465.066406 516.738281 464.355469 C 516.152344 463.644531 515.519531 462.972656 514.839844 462.347656 C 514.164062 461.722656 513.445312 461.148438 512.6875 460.621094 C 511.933594 460.09375 511.144531 459.617188 510.320312 459.199219 C 499.988281 453.210938 489.359375 447.796875 478.441406 442.957031 C 469.5 438.621094 460.859375 433.753906 452.519531 428.355469 C 448.339844 425.664062 444.511719 422.539062 441.042969 418.980469 C 437.570312 415.421875 434.542969 411.519531 431.957031 407.273438 C 429.085938 402.183594 426.964844 396.796875 425.601562 391.117188 C 424.234375 385.433594 423.675781 379.675781 423.921875 373.835938 C 423.789062 371.511719 423.796875 369.191406 423.945312 366.871094 C 424.089844 364.550781 424.375 362.246094 424.800781 359.957031 C 425.222656 357.671875 425.78125 355.417969 426.476562 353.199219 C 427.171875 350.980469 427.996094 348.808594 428.953125 346.6875 C 429.90625 344.566406 430.988281 342.511719 432.1875 340.519531 C 433.390625 338.53125 434.707031 336.617188 436.140625 334.785156 C 437.574219 332.953125 439.109375 331.210938 440.75 329.5625 C 442.394531 327.917969 444.125 326.371094 445.953125 324.933594 C 450.238281 321.910156 454.742188 319.257812 459.46875 316.980469 C 464.191406 314.703125 469.070312 312.832031 474.105469 311.359375 C 479.140625 309.890625 484.261719 308.84375 489.46875 308.222656 C 494.675781 307.601562 499.898438 307.410156 505.136719 307.652344 C 517.628906 307.542969 529.929688 309.042969 542.03125 312.144531 C 553.359375 315.121094 564.386719 318.953125 575.121094 323.636719 L 557.839844 366.144531 C 548.53125 361.992188 538.972656 358.535156 529.15625 355.777344 C 520.683594 353.390625 512.042969 352.179688 503.238281 352.148438 C 499.769531 351.859375 496.355469 352.175781 493 353.097656 C 489.640625 354.019531 486.546875 355.488281 483.710938 357.507812 C 482.683594 358.335938 481.765625 359.273438 480.957031 360.316406 C 480.144531 361.359375 479.460938 362.476562 478.910156 363.675781 C 478.355469 364.875 477.941406 366.121094 477.675781 367.410156 C 477.40625 368.703125 477.285156 370.011719 477.316406 371.328125 C 477.3125 373.484375 477.695312 375.570312 478.472656 377.582031 C 479.246094 379.59375 480.359375 381.398438 481.808594 382.992188 C 485.898438 387.140625 490.5625 390.484375 495.804688 393.015625 C 502.199219 396.472656 510.667969 400.621094 521.121094 405.457031 C 531.523438 410.058594 541.34375 415.671875 550.582031 422.304688 C 554.453125 425.054688 557.957031 428.207031 561.09375 431.769531 C 564.234375 435.328125 566.921875 439.203125 569.160156 443.386719 C 571.425781 448.035156 573.101562 452.886719 574.183594 457.945312 C 575.265625 463 575.722656 468.113281 575.554688 473.28125 Z M 575.46875 473.28125 " fill-opacity="1" fill-rule="nonzero"/></svg>