<svg xmlns="http://www.w3.org/2000/svg" xmlns:xlink="http://www.w3.org/1999/xlink" width="1080" zoomAndPan="magnify" viewBox="0 0 810 809.999993" height="1080" preserveAspectRatio="xMidYMid meet" version="1.0"><path fill="#ff4500" d="M 126.824219 576.253906 L 144.691406 558.144531 C 169.4375 608.425781 206.441406 650.664062 252.679688 681.132812 C 300.402344 712.585938 354.011719 728.984375 408.632812 728.980469 C 413.730469 728.980469 418.84375 728.835938 423.953125 728.550781 C 499.28125 724.320312 572.25 687.765625 624.128906 628.242188 C 649.304688 599.367188 668.351562 566.714844 680.738281 531.191406 C 693.765625 493.832031 698.769531 455.050781 695.597656 415.917969 C 688.945312 333.65625 646.867188 260.757812 585.292969 212.210938 L 599.75 188.957031 C 602.460938 190.882812 605.160156 192.804688 607.859375 194.734375 C 612.617188 198.117188 619.222656 197.011719 622.613281 192.253906 C 626 187.496094 624.894531 180.890625 620.136719 177.503906 C 605.207031 166.863281 590.277344 156.234375 575.351562 145.601562 C 570.59375 142.207031 563.980469 143.320312 560.597656 148.078125 C 557.203125 152.835938 558.316406 159.441406 563.074219 162.828125 C 566.308594 165.132812 569.542969 167.4375 572.78125 169.746094 L 558.1875 193.203125 C 521.785156 170.625 480.246094 155.933594 436.15625 151.527344 L 436.15625 116.703125 L 455.328125 116.703125 C 465.1875 116.703125 473.179688 108.703125 473.179688 98.851562 C 473.179688 88.992188 465.1875 81 455.328125 81 L 364.097656 81 C 354.238281 81 346.246094 88.992188 346.246094 98.851562 C 346.246094 108.703125 354.238281 116.703125 364.097656 116.703125 L 384.589844 116.703125 L 384.589844 151.152344 C 331.558594 155.734375 279.769531 175.503906 236.246094 208.148438 C 184.75 246.761719 146.457031 302.261719 128.417969 364.414062 C 125.078125 375.925781 131.699219 387.964844 143.210938 391.308594 C 154.722656 394.652344 166.765625 388.023438 170.105469 376.515625 C 201.539062 268.214844 299.0625 193.53125 408.242188 193.53125 C 409.679688 193.53125 411.136719 193.546875 412.578125 193.570312 C 536.953125 195.820312 642.265625 295.027344 652.332031 419.421875 C 657.605469 484.574219 635.96875 548.605469 591.410156 599.722656 C 547.164062 650.472656 485.242188 681.632812 421.519531 685.210938 C 324.488281 690.664062 232.257812 634.148438 185.539062 542.765625 L 207.585938 543.011719 C 215.746094 543.105469 219.878906 533.230469 214.085938 527.484375 L 127.816406 441.945312 C 122.109375 436.289062 112.410156 440.285156 112.339844 448.316406 L 111.277344 569.796875 C 111.207031 577.957031 121.09375 582.0625 126.824219 576.253906 " fill-opacity="1" fill-rule="nonzero"/><path fill="#ff4500" d="M 407.542969 402.589844 C 427.917969 402.589844 444.4375 419.105469 444.4375 439.480469 C 444.4375 459.855469 427.917969 476.378906 407.542969 476.378906 C 387.167969 476.378906 370.648438 459.855469 370.648438 439.480469 C 370.648438 437.554688 370.800781 435.65625 371.085938 433.808594 L 270.351562 341.894531 C 265.753906 337.695312 265.429688 330.566406 269.625 325.96875 C 273.527344 321.6875 280.019531 321.144531 284.601562 324.460938 L 394.722656 404.882812 C 398.71875 403.402344 403.035156 402.589844 407.542969 402.589844 Z M 192.070312 428.867188 L 228.617188 428.867188 C 234.816406 428.867188 240.132812 433.714844 240.246094 439.914062 C 240.359375 446.222656 235.277344 451.378906 228.992188 451.378906 L 192.140625 451.378906 C 192.710938 461.882812 194.035156 472.191406 196.058594 482.242188 L 241.984375 527.777344 C 253.039062 538.742188 245.15625 557.589844 229.589844 557.410156 L 226.871094 557.382812 C 263.796875 613.855469 326.472656 651.957031 398.238281 655.003906 L 398.238281 617.15625 C 398.238281 610.957031 403.085938 605.644531 409.285156 605.53125 C 415.59375 605.414062 420.75 610.5 420.75 616.78125 L 420.75 654.804688 C 530.238281 648.191406 617.695312 559.929688 623.015625 450.097656 L 586.152344 450.097656 C 579.871094 450.097656 574.785156 444.945312 574.902344 438.632812 C 575.011719 432.4375 580.332031 427.589844 586.527344 427.589844 L 622.949219 427.589844 C 617.011719 318.347656 529.816406 230.746094 420.75 224.164062 L 420.75 261.804688 C 420.75 268.003906 415.898438 273.320312 409.703125 273.433594 C 403.390625 273.550781 398.238281 268.46875 398.238281 262.179688 L 398.238281 223.957031 C 286.929688 228.683594 197.457031 317.734375 192.070312 428.867188 " fill-opacity="1" fill-rule="nonzero"/></svg>