<svg xmlns="http://www.w3.org/2000/svg" xmlns:xlink="http://www.w3.org/1999/xlink" width="1080" zoomAndPan="magnify" viewBox="0 0 810 809.999993" height="1080" preserveAspectRatio="xMidYMid meet" version="1.0"><path fill="#ffffff" d="M 404.996094 417.125 C 491.742188 417.125 562.304688 325.058594 562.304688 238.320312 C 562.304688 151.582031 491.742188 81 404.996094 81 C 318.25 81 247.683594 151.582031 247.683594 238.320312 C 247.699219 325.050781 318.257812 417.125 404.996094 417.125 Z M 404.996094 417.125 " fill-opacity="1" fill-rule="nonzero"/><path fill="#ffffff" d="M 523.089844 418.738281 C 492.578125 441.988281 454.511719 455.816406 413.277344 455.816406 L 396.71875 455.816406 C 355.476562 455.816406 317.402344 441.980469 286.894531 418.738281 C 187.261719 434.84375 111.179688 521.199219 111.179688 625.371094 C 111.179688 682.597656 242.722656 729 404.996094 729 C 567.261719 729 698.816406 682.597656 698.816406 625.371094 C 698.816406 521.199219 622.726562 434.84375 523.089844 418.738281 Z M 523.089844 418.738281 " fill-opacity="1" fill-rule="nonzero"/></svg>