<svg xmlns="http://www.w3.org/2000/svg" xmlns:xlink="http://www.w3.org/1999/xlink" width="1080" zoomAndPan="magnify" viewBox="0 0 810 809.999993" height="1080" preserveAspectRatio="xMidYMid meet" version="1.0"><defs><clipPath id="fa1baeb2d4"><path d="M 81 81 L 729 81 L 729 729 L 81 729 Z M 81 81 " clip-rule="nonzero"/></clipPath><clipPath id="4a7de4ef08"><path d="M 405 81 C 226.058594 81 81 226.058594 81 405 C 81 583.941406 226.058594 729 405 729 C 583.941406 729 729 583.941406 729 405 C 729 226.058594 583.941406 81 405 81 Z M 405 81 " clip-rule="nonzero"/></clipPath><clipPath id="18de2b4a8c"><path d="M 213.402344 213.402344 L 596.40625 213.402344 L 596.40625 596.40625 L 213.402344 596.40625 Z M 213.402344 213.402344 " clip-rule="nonzero"/></clipPath></defs><rect x="-81" width="972" fill="#ffffff" y="-80.999999" height="971.999992" fill-opacity="1"/><rect x="-81" width="972" fill="#ff402c" y="-80.999999" height="971.999992" fill-opacity="1"/><g clip-path="url(#fa1baeb2d4)"><g clip-path="url(#4a7de4ef08)"><path fill="#ffffff" d="M 81 81 L 729 81 L 729 729 L 81 729 Z M 81 81 " fill-opacity="1" fill-rule="nonzero"/></g></g><g clip-path="url(#18de2b4a8c)"><path fill="#ff402c" d="M 539.445312 488.574219 C 574.746094 513.960938 596.585938 549.261719 596.585938 588.445312 C 596.585938 592.945312 592.945312 596.585938 588.492188 596.585938 L 221.496094 596.585938 C 217.042969 596.585938 213.402344 592.945312 213.402344 588.445312 C 213.402344 549.261719 235.242188 513.960938 270.542969 488.574219 C 305.078125 463.765625 352.640625 448.390625 404.992188 448.390625 C 457.347656 448.390625 504.910156 463.765625 539.445312 488.574219 Z M 404.992188 213.402344 C 464.484375 213.402344 512.714844 262.019531 512.714844 321.988281 C 512.714844 382.003906 464.484375 430.621094 404.992188 430.621094 C 345.503906 430.621094 297.269531 382.003906 297.269531 321.988281 C 297.269531 262.019531 345.503906 213.402344 404.992188 213.402344 Z M 404.992188 213.402344 " fill-opacity="1" fill-rule="evenodd"/></g></svg>