<svg xmlns="http://www.w3.org/2000/svg" xmlns:xlink="http://www.w3.org/1999/xlink" width="1080" zoomAndPan="magnify" viewBox="0 0 810 809.999993" height="1080" preserveAspectRatio="xMidYMid meet" version="1.0"><path fill="#ffffff" d="M 311.605469 332.855469 L 247.480469 396.980469 C 243.046875 401.417969 243.046875 408.714844 247.480469 413.152344 L 311.460938 477.132812 C 315.898438 481.570312 323.199219 481.570312 327.636719 477.132812 C 332.074219 472.695312 332.074219 465.398438 327.636719 460.960938 L 283.265625 416.445312 L 555.503906 416.445312 C 561.800781 416.445312 566.953125 411.292969 566.953125 404.996094 C 566.953125 398.695312 561.800781 393.542969 555.503906 393.542969 L 283.265625 393.542969 L 327.78125 349.03125 C 330.070312 346.738281 331.070312 343.875 331.070312 340.871094 C 331.070312 337.863281 329.925781 335.003906 327.78125 332.710938 C 323.34375 328.417969 316.042969 328.417969 311.605469 332.855469 Z M 311.605469 332.855469 " fill-opacity="1" fill-rule="nonzero"/></svg>