<svg xmlns="http://www.w3.org/2000/svg" xmlns:xlink="http://www.w3.org/1999/xlink" width="1080" zoomAndPan="magnify" viewBox="0 0 810 809.999993" height="1080" preserveAspectRatio="xMidYMid meet" version="1.0"><path fill="#000000" d="M 311.605469 332.851562 L 247.480469 396.910156 C 243.046875 401.34375 243.046875 408.636719 247.480469 413.070312 L 311.460938 476.984375 C 315.898438 481.417969 323.199219 481.417969 327.636719 476.984375 C 332.074219 472.554688 332.074219 465.261719 327.636719 460.828125 L 283.265625 416.359375 L 555.503906 416.359375 C 561.800781 416.359375 566.953125 411.210938 566.953125 404.917969 C 566.953125 398.625 561.800781 393.480469 555.503906 393.480469 L 283.265625 393.480469 L 327.78125 349.007812 C 330.070312 346.722656 331.070312 343.859375 331.070312 340.859375 C 331.070312 337.855469 329.925781 334.996094 327.78125 332.707031 C 323.34375 328.417969 316.042969 328.417969 311.605469 332.851562 Z M 311.605469 332.851562 " fill-opacity="1" fill-rule="nonzero"/></svg>